<?xml version="1.0" standalone="no"?>
<!DOCTYPE svg PUBLIC "-//W3C//DTD SVG 20010904//EN"
 "http://www.w3.org/TR/2001/REC-SVG-20010904/DTD/svg10.dtd">
<svg version="1.0" xmlns="http://www.w3.org/2000/svg"
 width="1200.000000pt" height="219.000000pt" viewBox="0 0 1200.000000 219.000000"
 preserveAspectRatio="xMidYMid meet">

<g transform="translate(0.000000,219.000000) scale(0.100000,-0.100000)"
fill="#000000" stroke="none">
<path d="M1435 2141 c-229 -56 -402 -221 -470 -446 -13 -44 -26 -101 -28 -127
-4 -46 -4 -46 30 -53 19 -3 71 -25 116 -48 l82 -42 0 90 c0 83 3 96 36 166
159 334 625 335 782 2 27 -58 32 -82 35 -165 l4 -96 46 29 c26 16 77 39 115
51 l69 22 -7 55 c-19 152 -84 282 -194 391 -164 162 -394 226 -616 171z"/>
<path d="M3676 1455 c-73 -30 -138 -92 -174 -165 -24 -48 -27 -67 -27 -150 1
-85 4 -101 30 -153 34 -68 87 -120 159 -153 69 -32 123 -38 202 -25 75 13 111
30 167 74 l37 31 -36 37 -37 38 -31 -23 c-57 -43 -97 -58 -156 -58 -129 0
-219 97 -220 238 0 194 191 296 352 188 l52 -35 33 38 c18 21 32 41 33 45 0 4
-15 19 -34 33 -88 67 -241 85 -350 40z"/>
<path d="M5206 1455 c-85 -35 -132 -80 -174 -165 -24 -48 -27 -67 -27 -150 1
-85 4 -101 30 -153 94 -189 340 -242 519 -111 l48 36 -37 38 -38 39 -31 -23
c-57 -43 -97 -58 -156 -58 -129 0 -219 97 -220 238 0 194 191 296 352 188 l52
-35 33 38 c18 21 32 41 33 45 0 4 -15 19 -34 33 -88 67 -241 85 -350 40z"/>
<path d="M9975 1466 c-93 -29 -138 -85 -139 -175 -1 -104 47 -151 199 -192
106 -28 153 -53 161 -84 17 -66 -27 -105 -119 -105 -65 0 -108 14 -164 52
l-41 28 -31 -39 c-17 -21 -31 -41 -31 -44 0 -12 102 -67 151 -81 29 -9 85 -16
125 -16 137 0 223 72 224 188 0 114 -55 157 -266 212 -81 20 -115 73 -84 130
26 48 136 50 222 3 l50 -27 29 34 c16 19 29 38 29 42 0 16 -78 58 -135 73 -70
18 -125 18 -180 1z"/>
<path d="M4200 1145 l0 -325 55 0 55 0 2 231 3 231 98 -146 c54 -80 102 -148
106 -150 5 -3 50 57 101 134 51 77 98 144 104 149 8 7 10 -52 7 -220 l-3 -229
61 0 61 0 0 325 0 325 -63 0 -62 0 -100 -155 c-54 -85 -100 -155 -101 -155 -1
0 -46 70 -100 155 l-99 155 -62 0 -63 0 0 -325z"/>
<path d="M6012 1237 l3 -233 30 -59 c38 -76 82 -110 168 -131 135 -34 262 12
321 116 l31 55 3 243 3 242 -55 0 -56 0 0 -218 c0 -206 -1 -220 -22 -262 -30
-58 -71 -81 -143 -81 -70 0 -112 23 -143 79 -22 40 -23 50 -23 262 l0 220 -60
0 -61 0 4 -233z"/>
<path d="M6740 1145 l0 -325 55 0 55 0 2 233 3 232 180 -232 180 -233 48 0 47
0 0 325 0 325 -50 0 -50 0 0 -225 c0 -124 -3 -225 -7 -224 -5 0 -86 101 -181
225 l-173 224 -55 0 -54 0 0 -325z"/>
<path d="M7504 1393 c3 -42 6 -188 6 -325 l0 -248 55 0 55 0 0 325 0 325 -61
0 -62 0 7 -77z"/>
<path d="M7750 1468 c0 -2 60 -150 134 -328 l134 -325 52 0 52 0 134 325 c74
179 134 326 134 328 0 2 -28 2 -61 0 l-61 -3 -97 -248 c-65 -168 -99 -244
-105 -235 -4 7 -49 119 -100 248 l-92 235 -62 3 c-34 2 -62 1 -62 0z"/>
<path d="M8520 1145 l0 -325 245 0 245 0 0 45 0 45 -190 0 -190 0 0 95 0 95
165 0 165 0 0 44 c0 41 -2 44 -31 50 -17 3 -91 3 -165 -1 l-134 -6 0 91 0 92
185 0 185 0 0 28 c0 15 3 37 6 50 l6 22 -246 0 -246 0 0 -325z"/>
<path d="M9160 1146 l0 -326 55 0 55 0 0 110 0 110 78 0 77 -1 75 -109 75
-109 68 -1 69 0 -36 48 c-19 26 -58 79 -86 119 l-51 72 38 20 c86 43 118 102
111 206 -5 75 -35 122 -101 158 -39 20 -58 22 -234 25 l-193 4 0 -326z m360
206 c87 -43 77 -159 -16 -198 -21 -9 -71 -14 -134 -14 l-100 0 0 115 0 115
108 0 c82 0 115 -4 142 -18z"/>
<path d="M10470 1145 l0 -325 55 0 55 0 0 325 0 325 -55 0 -55 0 0 -325z"/>
<path d="M10720 1420 l0 -50 105 0 105 0 0 -275 0 -275 55 0 55 0 0 275 0 275
105 0 105 0 0 50 0 50 -265 0 -265 0 0 -50z"/>
<path d="M11450 1273 l130 -197 0 -128 0 -128 54 0 54 0 4 129 3 128 128 192
c70 105 127 193 127 196 0 3 -28 5 -62 5 l-63 0 -88 -140 c-49 -77 -93 -140
-97 -140 -4 0 -48 63 -97 140 l-88 140 -67 0 -67 0 129 -197z"/>
<path d="M585 1425 c-271 -50 -473 -248 -529 -518 -20 -94 -20 -154 -2 -250
58 -301 305 -517 611 -534 114 -6 212 14 320 65 100 48 149 93 165 151 7 26
10 94 8 170 l-3 126 -110 156 -110 157 -5 -264 c-4 -219 -8 -266 -20 -279 -9
-8 -43 -24 -75 -36 -49 -17 -77 -20 -156 -17 -84 3 -104 8 -163 37 -88 43
-165 121 -207 207 -58 122 -51 284 17 400 37 63 126 141 201 177 63 30 75 32
176 32 l107 0 0 111 0 111 -52 7 c-69 8 -89 7 -173 -9z"/>
<path d="M2403 1433 l-33 -4 0 -114 0 -113 84 5 c108 7 199 -19 282 -80 264
-195 230 -589 -63 -734 -65 -32 -86 -37 -162 -41 -101 -5 -184 14 -228 52
l-28 24 -5 258 -5 258 -107 -156 -108 -156 0 -148 c0 -199 11 -218 165 -293
189 -93 392 -92 585 2 67 32 102 59 166 122 140 139 201 299 192 499 -8 172
-67 304 -194 432 -57 58 -89 81 -165 117 -52 25 -114 50 -139 55 -54 13 -192
22 -237 15z"/>
<path d="M930 1276 l0 -115 321 -463 c177 -255 326 -468 333 -475 8 -8 92 105
336 457 l325 469 3 121 c1 66 -1 120 -6 120 -19 0 -130 -74 -170 -113 -24 -23
-141 -182 -260 -354 -119 -171 -220 -309 -224 -307 -3 2 -101 141 -217 308
-116 167 -232 325 -258 351 -47 46 -150 115 -172 115 -7 0 -11 -37 -11 -114z"/>
<path d="M7900 345 c0 -205 1 -215 19 -215 18 0 20 10 23 111 3 107 4 112 31
135 38 32 90 32 122 -1 24 -23 25 -31 25 -135 0 -103 1 -110 20 -110 19 0 20
7 20 115 0 81 -4 124 -14 144 -29 55 -109 67 -170 26 l-36 -24 0 84 c0 78 -2
85 -20 85 -19 0 -20 -7 -20 -215z"/>
<path d="M10140 345 c0 -208 1 -215 20 -215 19 0 20 7 20 215 0 208 -1 215
-20 215 -19 0 -20 -7 -20 -215z"/>
<path d="M11520 345 c0 -208 1 -215 20 -215 19 0 20 7 20 215 0 208 -1 215
-20 215 -19 0 -20 -7 -20 -215z"/>
<path d="M11870 474 l0 -85 -30 21 c-66 47 -161 32 -200 -32 -45 -74 -38 -152
20 -210 33 -34 43 -38 87 -38 37 0 60 7 87 25 l36 24 0 -24 c0 -20 5 -25 25
-25 l25 0 0 215 0 215 -25 0 c-25 0 -25 -1 -25 -86z m-36 -104 c61 -54 54
-147 -16 -190 -87 -55 -187 36 -157 142 21 80 109 104 173 48z"/>
<path d="M4520 525 c0 -18 5 -25 20 -25 15 0 20 7 20 25 0 18 -5 25 -20 25
-15 0 -20 -7 -20 -25z"/>
<path d="M6962 528 c2 -15 11 -24 26 -26 18 -3 22 1 22 22 0 21 -5 26 -26 26
-21 0 -25 -4 -22 -22z"/>
<path d="M9080 525 c0 -18 5 -25 20 -25 15 0 20 7 20 25 0 18 -5 25 -20 25
-15 0 -20 -7 -20 -25z"/>
<path d="M9530 525 c0 -20 5 -25 25 -25 20 0 25 5 25 25 0 20 -5 25 -25 25
-20 0 -25 -5 -25 -25z"/>
<path d="M3565 348 c-48 -106 -89 -199 -92 -205 -3 -8 3 -13 16 -13 17 0 28
13 47 55 l24 56 116 -3 116 -3 22 -52 c17 -43 26 -53 45 -53 15 0 21 4 18 14
-3 7 -45 99 -92 205 -76 166 -90 191 -110 191 -20 0 -34 -25 -110 -192z m196
-45 c8 -23 8 -23 -87 -23 -73 0 -95 3 -91 13 3 6 24 54 48 106 l43 95 39 -85
c22 -46 43 -94 48 -106z"/>
<path d="M5930 335 c0 -198 1 -205 20 -205 19 0 20 7 20 205 0 198 -1 205 -20
205 -19 0 -20 -7 -20 -205z"/>
<path d="M8670 334 l0 -206 98 4 c119 5 179 29 220 90 36 56 43 148 13 205
-43 85 -102 113 -243 113 l-88 0 0 -206z m236 140 c68 -51 89 -121 59 -200
-26 -68 -74 -96 -176 -102 l-79 -5 0 168 0 167 84 -3 c66 -3 91 -9 112 -25z"/>
<path d="M10360 533 c0 -7 79 -233 126 -360 11 -29 22 -43 34 -43 15 0 29 30
72 160 29 88 56 160 60 160 3 0 30 -72 60 -160 45 -138 55 -160 73 -160 17 0
25 13 42 62 11 35 43 127 71 206 50 139 50 142 28 142 -20 0 -28 -17 -77 -161
-30 -88 -59 -160 -63 -160 -5 0 -32 71 -60 158 -71 216 -74 216 -146 -2 -30
-91 -57 -165 -60 -165 -3 0 -30 73 -61 163 -47 136 -60 163 -78 165 -11 2 -21
0 -21 -5z"/>
<path d="M5270 480 c0 -43 -3 -50 -20 -50 -11 0 -20 -7 -20 -15 0 -8 9 -15 19
-15 18 0 20 -10 23 -114 4 -139 15 -159 87 -154 34 2 47 7 49 21 3 14 -4 17
-37 17 -54 0 -62 18 -59 133 l3 92 48 3 c32 2 47 8 47 17 0 9 -15 15 -47 17
l-48 3 -3 48 c-3 39 -6 47 -23 47 -16 0 -19 -7 -19 -50z"/>
<path d="M7720 480 c0 -43 -3 -50 -20 -50 -11 0 -20 -7 -20 -15 0 -8 9 -15 19
-15 18 0 20 -10 23 -114 4 -139 15 -159 87 -154 34 2 47 7 49 21 3 14 -4 17
-37 17 -54 0 -61 16 -61 134 l0 96 50 0 c37 0 50 4 50 14 0 11 -14 16 -47 18
l-48 3 -3 48 c-3 39 -6 47 -23 47 -16 0 -19 -7 -19 -50z"/>
<path d="M9660 480 c0 -43 -3 -50 -20 -50 -11 0 -20 -7 -20 -15 0 -8 9 -15 20
-15 19 0 20 -7 20 -115 0 -103 2 -117 21 -136 26 -26 112 -24 117 4 3 14 -4
17 -35 17 -22 0 -44 5 -51 12 -8 8 -12 48 -12 115 l0 103 50 0 c38 0 50 4 50
15 0 11 -12 15 -50 15 l-50 0 0 50 c0 43 -3 50 -20 50 -17 0 -20 -7 -20 -50z"/>
<path d="M3954 426 c-34 -15 -44 -33 -44 -76 0 -34 17 -53 62 -69 105 -38 133
-72 86 -105 -30 -21 -61 -20 -107 4 -39 19 -51 18 -51 -7 0 -24 69 -46 129
-41 63 6 91 31 91 83 0 40 -21 59 -95 88 -66 25 -86 47 -69 75 11 16 71 22
129 11 35 -7 22 25 -15 38 -46 16 -78 15 -116 -1z"/>
<path d="M4280 433 c-8 -3 -27 -17 -42 -31 l-28 -26 0 27 c0 20 -5 27 -20 27
-19 0 -20 -7 -20 -195 0 -188 1 -195 20 -195 18 0 20 7 20 70 l0 69 36 -24
c52 -36 121 -35 165 2 79 67 78 197 -2 256 -27 19 -102 31 -129 20z m103 -53
c54 -43 59 -135 9 -182 -36 -34 -65 -42 -107 -28 -48 16 -75 57 -75 115 0 40
5 52 34 81 41 41 97 47 139 14z"/>
<path d="M4735 424 c-16 -8 -38 -25 -47 -37 l-18 -22 0 33 c0 27 -4 32 -25 32
l-25 0 0 -150 0 -150 25 0 c25 0 25 1 25 89 0 75 3 93 23 122 13 20 37 39 57
45 23 8 36 19 38 33 4 25 -12 27 -53 5z"/>
<path d="M4883 425 c-18 -8 -42 -29 -53 -47 -43 -71 -38 -149 14 -206 31 -33
39 -36 97 -39 51 -3 70 0 97 16 56 36 37 61 -24 31 -46 -24 -75 -25 -113 -5
-24 12 -61 67 -61 89 0 3 56 6 124 6 l123 0 -8 47 c-12 61 -33 91 -74 109 -43
18 -81 17 -122 -1z m130 -56 c15 -16 27 -38 27 -49 0 -19 -7 -20 -100 -20 -55
0 -100 3 -100 6 0 23 37 75 63 88 41 21 75 13 110 -25z"/>
<path d="M5525 426 c-79 -34 -113 -128 -77 -210 29 -65 70 -88 149 -84 55 4
67 8 97 37 127 123 -8 327 -169 257z m141 -60 c28 -28 34 -42 34 -75 0 -75
-49 -131 -113 -131 -38 0 -91 41 -104 83 -17 49 -7 92 29 128 24 23 38 29 75
29 38 0 50 -5 79 -34z"/>
<path d="M6128 416 c-36 -24 -38 -24 -38 -6 0 13 -7 20 -20 20 -19 0 -20 -7
-20 -150 0 -143 1 -150 20 -150 19 0 20 7 20 104 0 98 2 106 26 135 19 23 34
31 59 31 78 0 95 -31 95 -170 0 -95 1 -100 21 -100 20 0 21 4 17 125 -3 119
-4 126 -29 151 -40 39 -103 43 -151 10z"/>
<path d="M6404 426 c-34 -15 -44 -33 -44 -76 0 -34 17 -53 62 -69 102 -37 126
-64 92 -102 -22 -24 -64 -24 -113 1 -39 19 -51 18 -51 -7 0 -24 69 -46 129
-41 64 6 91 31 91 83 0 41 -26 63 -109 94 -51 18 -61 26 -61 45 0 45 31 53
135 34 35 -6 22 26 -15 39 -46 16 -78 15 -116 -1z"/>
<path d="M6730 433 c-8 -3 -27 -17 -42 -31 l-28 -26 0 27 c0 20 -5 27 -20 27
-19 0 -20 -7 -20 -195 0 -188 1 -195 20 -195 18 0 20 7 20 70 l0 69 36 -24
c52 -36 121 -35 165 2 79 67 78 197 -2 256 -27 19 -102 31 -129 20z m103 -53
c54 -43 59 -135 9 -182 -36 -34 -65 -42 -107 -28 -48 16 -75 57 -75 115 0 40
5 52 34 81 41 41 97 47 139 14z"/>
<path d="M7185 424 c-16 -8 -38 -25 -47 -37 l-18 -22 0 33 c0 27 -4 32 -25 32
l-25 0 0 -150 0 -150 24 0 c24 0 25 2 24 83 -1 111 23 158 89 176 18 5 29 15
31 29 4 26 -11 28 -53 6z"/>
<path d="M7333 425 c-18 -8 -42 -29 -53 -47 -43 -71 -38 -149 14 -206 31 -33
39 -36 97 -39 51 -3 70 0 97 16 56 36 37 61 -24 31 -46 -24 -75 -25 -115 -4
-25 12 -59 64 -59 89 0 3 54 5 120 5 l120 0 0 33 c0 101 -101 164 -197 122z
m124 -48 c12 -12 25 -34 28 -49 l7 -28 -101 0 c-56 0 -101 3 -101 6 0 23 37
75 63 88 38 19 74 13 104 -17z"/>
<path d="M8280 423 c-41 -21 -80 -90 -80 -143 0 -85 67 -150 154 -150 68 0
141 43 107 64 -4 3 -25 -4 -47 -14 -46 -24 -75 -25 -113 -5 -24 12 -61 67 -61
89 0 3 56 6 124 6 l125 0 -6 38 c-13 81 -52 121 -126 129 -28 3 -54 -2 -77
-14z m133 -54 c15 -16 27 -38 27 -49 0 -19 -7 -20 -100 -20 -55 0 -100 4 -100
9 0 4 10 23 23 42 44 66 100 73 150 18z"/>
<path d="M9243 424 c-95 -47 -97 -200 -4 -249 46 -23 110 -19 154 10 l37 26 0
-35 c0 -25 -9 -45 -27 -66 -38 -42 -93 -50 -156 -22 -45 20 -47 20 -57 2 -8
-16 -4 -20 37 -34 98 -33 186 -15 223 47 17 28 20 51 20 180 0 140 -1 147 -20
147 -13 0 -20 -7 -20 -20 0 -25 -2 -25 -46 5 -43 29 -94 32 -141 9z m130 -35
c57 -29 75 -103 37 -152 -24 -30 -81 -51 -114 -43 -88 22 -114 141 -42 191 24
18 88 20 119 4z"/>
<path d="M9878 429 c-40 -11 -43 -16 -30 -37 7 -10 15 -10 36 -2 71 27 138 3
152 -53 l7 -29 -64 6 c-85 8 -129 -8 -152 -55 -14 -29 -15 -42 -6 -68 21 -60
119 -81 185 -40 l34 21 0 -21 c0 -14 6 -21 20 -21 19 0 20 7 20 105 0 115 -14
166 -49 185 -31 16 -110 21 -153 9z m116 -145 c43 -6 46 -9 46 -36 0 -45 -48
-88 -97 -88 -21 0 -49 7 -61 16 -39 27 -24 88 28 107 21 8 31 8 84 1z"/>
<path d="M11046 417 c-72 -41 -99 -144 -56 -215 62 -101 220 -96 272 8 71 141
-80 285 -216 207z m154 -46 c52 -52 52 -126 -1 -177 -82 -78 -213 8 -185 122
4 15 20 39 36 55 41 41 109 41 150 0z"/>
<path d="M11422 420 c-18 -11 -35 -27 -38 -35 -10 -25 -24 -17 -24 15 0 23 -4
30 -20 30 -19 0 -20 -7 -20 -150 l0 -150 26 0 c26 0 26 1 20 53 -10 76 9 151
46 182 16 14 40 25 54 25 19 0 24 5 24 25 0 31 -22 33 -68 5z"/>
<path d="M4520 280 c0 -143 1 -150 20 -150 19 0 20 7 20 150 0 143 -1 150 -20
150 -19 0 -20 -7 -20 -150z"/>
<path d="M6970 280 c0 -143 1 -150 20 -150 19 0 20 7 20 150 0 143 -1 150 -20
150 -19 0 -20 -7 -20 -150z"/>
<path d="M9080 280 c0 -143 1 -150 20 -150 19 0 20 7 20 150 0 143 -1 150 -20
150 -19 0 -20 -7 -20 -150z"/>
<path d="M9540 280 c0 -143 1 -150 20 -150 19 0 20 7 20 150 0 143 -1 150 -20
150 -19 0 -20 -7 -20 -150z"/>
</g>
</svg>
