<?xml version="1.0" encoding="utf-8"?>
<!-- Generator: Adobe Illustrator 24.2.0, SVG Export Plug-In . SVG Version: 6.00 Build 0)  -->
<svg version="1.1" id="Layer_1" xmlns="http://www.w3.org/2000/svg" xmlns:xlink="http://www.w3.org/1999/xlink" x="0px" y="0px"
	 viewBox="0 0 540 360" style="enable-background:new 0 0 540 360;" xml:space="preserve">
<style type="text/css">
	.st0{fill:#018ED5;}
	.st1{fill:#FFFFFF;}
</style>
<rect x="-2902.4" y="-7.2" class="st0" width="777.6" height="374.4"/>
<g>
	<path class="st0" d="M205,23.4C234.6,2.6,274.3-2.6,308.3,9.7c29.8,10.5,54.6,33.9,66.8,63c5.6,13.1,8.6,27.3,9,41.5
		c-14.9,3.5-29.2,10-41.6,19.1c2.8-13.9,2-28.5-3-41.8c-5.6-15-16.1-28-29.6-36.6c-14.6-9.4-32.6-13.4-49.9-11
		c-17.9,2.3-34.6,11.5-46.3,25.2c-15.1,17.3-21.2,41.8-16.2,64.2c-12.4-9.1-26.6-15.6-41.6-19C156.5,78.4,175.5,43.6,205,23.4z"/>
	<path class="st0" d="M71.9,137.2c20.2-8.4,42.7-10.8,64.2-6.9c0,13.6,0,27.2,0,40.9c-13.9-3.9-28.9-3.8-42.7,0.6
		C76,177.1,60.8,189.3,51.6,205c-9.6,16.2-12.6,36.2-8.3,54.5c6.1,27.3,28.8,49.8,56.1,55.7c16,3.6,33.2,1.7,48-5.4
		c4.9-2.4,8.4-7.6,8.3-13.1c0-28.3,0-56.6,0-84.8c12.8,18.4,25.4,36.8,38.2,55.1c0.7,1.1,1.4,2.2,1.3,3.6c0,12.7,0,25.4,0,38.1
		c0,5.9-1,12-4.1,17c-3.6,6.6-10.2,10.7-16.4,14.7c-21.3,13-47,18.6-71.8,15.9c-33.8-3.5-65.4-23.3-83.5-51.9
		C-0.1,274-3.9,234.4,9.4,200.9C20.5,172.4,43.6,148.8,71.9,137.2z"/>
	<path class="st0" d="M403.8,130.3c34.8-6.5,72.3,4.3,98.1,28.6c25.1,23,38.9,57.7,36.2,91.7c-2,31.2-17.6,61.2-42,80.8
		c-16.3,13.3-36.2,21.8-57,24.5c-28.9,3.8-59.4-3.8-82.6-21.6c-7.3-5.3-11.6-14.1-11.8-23.1c-0.1-12.9,0-25.8-0.1-38.6
		c0-1.9-0.2-4,1.2-5.5c12.8-18.4,25.5-36.9,38.3-55.2c0.1,27.9,0,55.8,0,83.7c-0.1,3.8,1,7.7,3.6,10.6c2.7,3.3,6.8,4.7,10.7,6.2
		c15.4,5.8,32.9,6.2,48.6,1.1c17.1-5.5,32-17.4,41.1-32.9c8-13.4,11.6-29.5,10-45c-1.3-13.9-6.7-27.5-15.3-38.5
		c-10.9-14.1-27.1-24.1-44.6-27.4c-11.4-2.3-23.3-1.6-34.4,1.5C403.8,157.5,403.8,143.9,403.8,130.3z"/>
	<path class="st0" d="M341.9,168.3c10.7-14.5,25.4-26,42.2-32.8c0.1,13.4,0,26.7,0,40.1c0.1,1.3-0.4,2.5-1.2,3.6
		c-37.7,54.2-75.3,108.3-112.9,162.5c-38.2-54.6-76.1-109.5-114.2-164.2c-0.1-14,0-28,0-41.9c17.5,7,32.8,19.3,43.7,34.8
		c23.4,33.8,47,67.5,70.4,101.4C294.2,237.4,317.8,202.7,341.9,168.3z"/>
</g>
<g>
	<g>
		<path class="st0" d="M-1119.2,165c6.9-7.4,19.8-7.1,26.8,0c-1.4,1.5-2.7,3.1-4.1,4.6c-2-1.9-4.3-3.5-7-4.1
			c-3.8-0.9-8.1,0.3-10.8,3.2c-4.3,4.5-4.5,12.1-0.7,17c2.6,3.5,7.3,5.1,11.5,4.1c2.9-0.5,5.2-2.4,7.3-4.2c1.3,1.3,2.6,2.7,3.9,4
			c-1.6,1.7-3.3,3.1-5.3,4.3c-3.4,1.7-7.2,2-11,1.9c-4.4-0.6-8.6-2.7-11.4-6.1C-1125.8,182.7-1125.5,171.5-1119.2,165z"/>
		<path class="st0" d="M-1037.4,164.1c7.1-6.4,18.9-5.8,25.7,0.8c-1,1.8-2.6,3.2-3.9,4.8c-2.2-1.9-4.6-3.6-7.5-4.1
			c-4.1-0.9-8.6,0.7-11.1,4.1c-3.5,4.5-3.5,11.4-0.1,16c2.5,3.5,7.1,5.2,11.2,4.3c3-0.5,5.5-2.4,7.7-4.4c1.3,1.3,2.7,2.7,4,4
			c-5.1,6-14.1,7.8-21.3,4.8c-4.7-1.9-8.3-6-9.8-10.8c-0.3-1.1-0.6-2.2-0.7-3.3C-1043.9,174.3-1042,168-1037.4,164.1z"/>
		<path class="st0" d="M-786.5,164.5c1.9-2.8,5.1-4.2,8.4-4.6c1.2-0.1,2.3-0.1,3.5,0c3.3,0.2,6.5,1.2,9.3,3c0.6,0.4,1.2,0.9,1.8,1.3
			c-1.1,1.5-2.3,3.1-3.3,4.7c-0.3-0.2-0.8-0.5-1.1-0.7c-2.7-1.8-6-3.1-9.3-2.8c-1.8,0.2-3.7,1-4.4,2.8c-0.4,1.5-0.3,3.4,1.1,4.3
			c2.5,1.7,5.5,2.1,8.3,2.9c0.9,0.3,1.8,0.5,2.7,0.9c2.3,0.9,4.5,2.2,5.9,4.3c0.4,1,0.7,1.9,1.1,2.9c0.1,2.3,0,4.7-1.2,6.8
			c-1.1,2.1-3.1,3.5-5.2,4.4c-1.3,0.4-2.6,0.7-4,0.9c-2.6,0.1-5.3,0-7.8-0.7c-1.1-0.3-2.1-0.7-3.2-1.1c-2-1-3.9-2.3-5.6-3.7
			c1.3-1.5,2.5-2.9,3.8-4.4c1.5,1.1,3,2.2,4.6,3.1c1.2,0.5,2.4,0.9,3.6,1.2c2.4,0.4,5.2,0.5,7.3-1c1.8-1.2,2.2-4,0.8-5.6
			c-0.9-1-2.2-1.4-3.4-1.9c-0.9-0.3-1.7-0.5-2.6-0.7c-3.4-0.8-6.9-1.7-9.8-3.8c-0.9-0.9-1.6-1.9-2.2-3.1
			C-788.5,170.7-788.4,167.2-786.5,164.5z"/>
		<path class="st0" d="M-754.7,160.3c0.7,0,1.4,0,2,0c1,0,1.9,0,2.9,0c0.3,0,0.9,0,1.2,0c0,3.8,0,7.6,0,11.4c0,1.9,0,3.8,0,5.8
			c0,4.8,0,9.6,0,14.5c0,1,0,2.1,0,3.1c-0.6,0-1.2,0-1.8,0c-1.4,0-2.9,0-4.3,0c0-1.6,0-3.2,0-4.7c0-1.8,0-3.5,0-5.3c0-5,0-10,0-15
			c0-1.9,0-3.8,0-5.8C-754.7,163-754.7,161.6-754.7,160.3z"/>
		<path class="st0" d="M-741.3,160.3c0.3,0,1,0,1.3,0c2.3,0,4.6,0,6.9,0c0.8,0,1.5,0,2.3,0c2,0,4,0,6,0c0.7,0,1.4,0,2.2,0
			c1.9,0,3.9,0,5.8,0c0.5,0,1.4,0,1.9,0c0.6,0,1.2,0,1.9,0c0,1.9,0,3.8,0,5.7c-1.3,0-2.7,0-4,0c-0.5,0-1.5,0-1.9,0
			c-1.7,0-3.4,0-5.2,0c0.1,9.7,0,19.4,0,29.1c-1.5,0-3.1,0.1-4.6,0c-0.6-0.1-1.3-0.2-1.9-0.3c0.7-4.7,0.1-9.6,0.3-14.4
			c0-1.9,0-3.9,0-5.8c0-2.9,0-5.8,0-8.7c-1.1,0-2.1,0-3.1,0c-0.9,0-1.8,0-2.7,0c-1.7,0-3.5,0-5.2,0c0-0.8,0-1.6,0-2.3
			C-741.3,162.5-741.3,161.4-741.3,160.3z"/>
		<path class="st0" d="M-1085.4,160.3c2.2,0,4.4,0,6.6,0c3.5,5.5,7.1,10.9,10.5,16.4c3.4-5.5,7.1-11,10.5-16.5c2.2,0,4.3,0,6.5,0
			c0.1,6.4,0,12.9,0,19.4c0,1.2,0,2.4,0,3.5c0,1.8,0,3.6,0,5.5c0,2.1,0,4.3,0,6.4c-0.9,0-1.8,0-2.7,0c-1.2,0-2.3,0-3.5,0
			c0.1-8.3-0.1-16.5,0.1-24.8c-3.9,5.4-7.4,11-11.1,16.4c-3.8-5.4-7.4-11-11.1-16.4c0.1,8.3,0,16.5,0,24.8c-2,0-4,0-6,0
			c0-0.3,0-0.8,0-1.1C-1085.4,182.8-1085.4,171.5-1085.4,160.3z"/>
		<path class="st0" d="M-989.8,160.3c2,0,4.1,0,6.1,0c0.1,7.4-0.2,14.7,0.1,22.1c0.3,2.8,1.8,5.5,4.3,6.9c3,1.3,6.8,1.3,9.6-0.6
			c2.2-1.5,3.2-4.2,3.4-6.8c0.2-3.2,0-6.3,0.1-9.5c0-1.7,0-3.4,0-5.2c0-2.3,0-4.6,0-6.9c2,0,4.1,0,6.1,0c0,6.8,0,13.6,0,20.4
			c0,4.6-1.6,9.5-5.4,12.3c-1.7,1.2-3.7,2-5.8,2.5c-4.4,0.6-9.2,0.4-13-2.2c-3.9-2.7-5.6-7.5-5.6-12
			C-989.8,174.3-989.7,167.3-989.8,160.3z"/>
		<path class="st0" d="M-951.3,160.3c1.9,0,3.8,0,5.7,0c6.2,8,12.5,16,18.7,24.1c0-7.9-0.1-15.9,0.1-23.8c1.8-0.6,4-0.1,6-0.2
			c-0.1,4.2,0,8.4,0,12.6c0,1.7,0,3.4,0,5.2c0,4.8,0,9.6,0,14.3c0,0.9,0,1.8,0,2.6c-0.9,0-1.8,0-2.7,0.1c-1-0.2-2.2,0.3-2.9-0.6
			c-1.6-1.9-3-4-4.6-5.9c-0.8-1-1.5-1.9-2.3-2.9c-4-5.1-8-10.2-11.9-15.4c0.1,8.2,0,16.5,0,24.7c-2,0-4,0-6,0
			C-951.2,183.5-951.2,171.9-951.3,160.3z"/>
		<path class="st0" d="M-911.1,160.2c2.1,0,4.2,0,6.2,0c0,0.4,0,1.2,0,1.5c0,4.8,0,9.6,0,14.4c0,1.7,0,3.5,0,5.2c0,4.5,0,9.1,0,13.6
			c-2,0-4.1,0-6.1,0C-911.1,183.5-910.9,171.9-911.1,160.2z"/>
		<path class="st0" d="M-898.4,160.3c2.3,0,4.5,0,6.8,0c0.2,0.6,0.5,1.1,0.8,1.7c0.6,1.4,1.1,2.8,1.6,4.3c1.3,3.2,2.5,6.3,3.8,9.5
			c0.5,1.2,1,2.5,1.5,3.7c1,2.5,1.8,5.1,3.1,7.5c2-5.5,4.2-10.9,6.3-16.3c1.3-3.4,2.7-6.7,3.9-10.1l0.1-0.1c2.2,0.1,4.5,0.1,6.7,0.1
			c-2.8,6.5-5.4,13-8.1,19.6c-1.5,3.6-3,7.1-4.4,10.7c-0.7,1.6-1.3,3.1-2,4.7c-0.9,0-1.8,0-2.7,0.1c-0.9,0-1.8,0-2.7-0.1
			c-0.1-0.2-0.3-0.7-0.5-1c-1.4-3.3-2.7-6.6-4.1-9.9c-0.5-1.2-1-2.4-1.5-3.6c-1.4-3.4-2.8-6.8-4.2-10.2c-0.5-1.3-1.1-2.6-1.6-3.9
			C-896.5,164.6-897.4,162.4-898.4,160.3z"/>
		<path class="st0" d="M-857.5,165.4c0-1.7,0-3.4,0-5.1c8.6,0,17.2,0,25.9,0c-0.1,1.8-0.1,3.7-0.1,5.5c-6.6,0-13.1,0-19.7,0
			c0,3,0,6,0,9c5.8,0,11.7-0.1,17.5,0c0,1.8,0,3.7,0,5.5c-1.7,0-3.4,0-5,0c-1.4,0-2.8,0-4.2,0c-2.7,0-5.5,0-8.2,0c0,3.1,0,6.2,0,9.3
			c0.2,0,0.7,0,0.9,0c1.4,0,2.8,0,4.1,0c5,0,10,0,15,0c0,1.8,0,3.6,0,5.4c-6.6,0-13.3,0-19.9,0c-1.6,0-3.1,0-4.7,0
			c-0.4,0-1.2,0-1.6,0c0.1-8.2,0-16.3,0-24.5C-857.4,168.8-857.5,167.1-857.5,165.4z"/>
		<g>
			<path class="st0" d="M-823.5,160.3c5.2-0.1,10.4,0,15.6,0c3.7,0,7.7,1,10.2,3.9c2.7,3,3,7.5,1.9,11.3c-1.1,3.4-4.3,5.6-7.6,6.6
				c1.8,2.5,3.6,5.1,5.4,7.6c0.7,0.9,1.3,1.8,2,2.7c0.6,0.9,1.3,1.8,1.9,2.7c-1.3,0-2.6,0-3.9,0c-1.2,0-2.3,0-3.5-0.1
				c-2.8-4-5.6-8-8.4-11.9c-2.6-0.1-5.1,0-7.7,0c0,4,0,8,0,12c-2.1,0-4.1,0-6.2,0c0-11.2,0-22.4,0-33.6
				C-823.6,161.2-823.6,160.6-823.5,160.3z M-817.5,165.9c0,3.9,0,7.8,0,11.7c2.8,0,5.6,0,8.5,0c2,0,4.1-0.3,5.7-1.6
				c2.6-2,2.6-6.4,0.1-8.5c-1.5-1.2-3.4-1.6-5.3-1.6C-811.6,165.8-814.5,165.9-817.5,165.9z"/>
		</g>
		<path class="st0" d="M-709.7,160.3c2.4,0,4.9,0,7.3,0c1,1.6,2,3.2,3,4.7c0.5,0.8,1,1.6,1.5,2.4c1.7,2.7,3.4,5.4,5.2,8.1
			c3.3-5,6.6-10.1,9.7-15.2c2.4-0.1,4.8,0,7.2,0c-0.2,0.4-0.7,1.1-1,1.5c-0.9,1.2-1.7,2.5-2.5,3.7c-2,3-4,6-6,9.1
			c-0.8,1.2-1.6,2.5-2.5,3.7c-0.7,1-1.4,2-1.9,3.1c-0.3,2.1,0,4.3-0.1,6.5c0,1.2,0,2.3,0,3.5c0,1.3,0,2.5,0,3.8c-2.1,0-4.2,0-6.2,0
			c0-1.5,0-3.1,0.1-4.6c0-1.3,0-2.5,0.1-3.8c-0.2-2.1,0.6-4.5-0.8-6.4C-700.9,173.6-705.2,166.9-709.7,160.3z"/>
	</g>
	<g>
		<path class="st0" d="M-1243,130c9-6.4,21.2-7.9,31.5-4.2c9.1,3.2,16.7,10.4,20.4,19.2c1.7,4,2.6,8.3,2.7,12.7
			c-4.6,1.1-8.9,3-12.7,5.8c0.9-4.2,0.6-8.7-0.9-12.8c-1.7-4.6-4.9-8.6-9-11.2c-4.5-2.9-10-4.1-15.2-3.4c-5.5,0.7-10.6,3.5-14.1,7.7
			c-4.6,5.3-6.5,12.8-4.9,19.6c-3.8-2.8-8.1-4.8-12.7-5.8C-1257.8,146.8-1252,136.1-1243,130z"/>
		<path class="st0" d="M-1283.7,164.7c6.2-2.6,13.1-3.3,19.6-2.1c0,4.2,0,8.3,0,12.5c-4.2-1.2-8.8-1.2-13,0.2
			c-5.3,1.7-10,5.4-12.8,10.2c-2.9,5-3.9,11-2.5,16.7c1.9,8.3,8.8,15.2,17.1,17c4.9,1.1,10.1,0.5,14.7-1.7c1.5-0.7,2.6-2.3,2.5-4
			c0-8.6,0-17.3,0-25.9c3.9,5.6,7.8,11.2,11.7,16.8c0.2,0.3,0.4,0.7,0.4,1.1c0,3.9,0,7.8,0,11.6c0,1.8-0.3,3.7-1.3,5.2
			c-1.1,2-3.1,3.3-5,4.5c-6.5,4-14.4,5.7-21.9,4.8c-10.3-1.1-20-7.1-25.5-15.9c-6-9.2-7.2-21.3-3.1-31.6
			C-1299.4,175.5-1292.3,168.3-1283.7,164.7z"/>
		<path class="st0" d="M-1182.3,162.6c10.6-2,22.1,1.3,30,8.7c7.7,7,11.9,17.6,11.1,28c-0.6,9.5-5.4,18.7-12.8,24.7
			c-5,4-11.1,6.7-17.4,7.5c-8.8,1.1-18.1-1.2-25.2-6.6c-2.2-1.6-3.5-4.3-3.6-7c0-3.9,0-7.9,0-11.8c0-0.6-0.1-1.2,0.4-1.7
			c3.9-5.6,7.8-11.3,11.7-16.9c0,8.5,0,17,0,25.6c0,1.2,0.3,2.4,1.1,3.2c0.8,1,2.1,1.4,3.3,1.9c4.7,1.8,10,1.9,14.8,0.3
			c5.2-1.7,9.8-5.3,12.6-10c2.4-4.1,3.5-9,3.1-13.8c-0.4-4.3-2-8.4-4.7-11.8c-3.3-4.3-8.3-7.4-13.6-8.4c-3.5-0.7-7.1-0.5-10.5,0.5
			C-1182.3,170.9-1182.3,166.8-1182.3,162.6z"/>
		<path class="st0" d="M-1201.2,174.2c3.3-4.4,7.8-7.9,12.9-10c0,4.1,0,8.2,0,12.2c0,0.4-0.1,0.8-0.4,1.1
			c-11.5,16.5-23,33.1-34.5,49.6c-11.7-16.7-23.2-33.5-34.9-50.2c0-4.3,0-8.5,0-12.8c5.4,2.1,10,5.9,13.3,10.6
			c7.2,10.3,14.3,20.6,21.5,31C-1215.8,195.3-1208.6,184.7-1201.2,174.2z"/>
	</g>
	<g>
		<path class="st0" d="M-890.2,208.4c0.8,0,1.6-0.1,2.4-0.1c0,3.1,0,6.2,0,9.3c1.9-2.9,5.9-3.9,8.9-2.1c1.9,1.1,2.8,3.3,2.8,5.5
			c0,3.4,0.1,6.8,0,10.1c-0.8,0-1.6,0-2.4,0c-0.1-3.6,0.2-7.1-0.2-10.7c-0.2-2.2-2.5-3.8-4.7-3.5c-2.4,0.1-4.3,2.2-4.4,4.6
			c-0.1,3.2,0,6.4-0.1,9.7c-0.8,0-1.6,0-2.4,0C-890.2,223.6-890.2,216-890.2,208.4z"/>
		<path class="st0" d="M-772,208.4c0.8,0,1.6,0,2.4,0c0,7.6,0,15.1,0,22.7c-0.8,0-1.6,0-2.4,0C-772,223.6-772,216-772,208.4z"/>
		<path class="st0" d="M-699,208.4c0.8,0,1.6-0.1,2.5-0.1c0,7.6,0,15.2,0,22.8c-0.8,0-1.6,0-2.5,0C-699,223.6-698.9,216-699,208.4z"
			/>
		<g>
			<path class="st0" d="M-680.4,208.4c0.8,0,1.6,0,2.4,0c0,7.6,0,15.2,0,22.7c-0.8,0-1.6,0-2.5,0c0-1,0-2,0-3
				c-1.5,2.1-4,3.7-6.7,3.4c-4.1-0.2-7.3-4.1-7.2-8.1c-0.3-3.9,2.4-8,6.3-8.6c2.9-0.7,5.8,0.8,7.5,3.2
				C-680.4,214.8-680.4,211.6-680.4,208.4z M-688.4,217.3c-4.8,2-4.4,10.1,0.5,11.7c3.8,1.4,7.9-2.2,7.5-6.1
				C-680.1,218.9-684.6,215.5-688.4,217.3z"/>
		</g>
		<path class="st0" d="M-1068.9,208.8c0.9,0,1.9,0,2.8,0c0,0.9,0,1.8,0,2.7c-0.9,0-1.8,0-2.8,0
			C-1068.9,210.6-1068.9,209.7-1068.9,208.8z"/>
		<path class="st0" d="M-939.6,208.8c0.9,0,1.9,0,2.8,0c0,0.9,0,1.8,0,2.7c-0.9,0-1.8,0-2.8,0C-939.6,210.6-939.6,209.7-939.6,208.8
			z"/>
		<path class="st0" d="M-828.1,208.8c0.9,0,1.9,0,2.8,0c0,0.9,0,1.8,0,2.7c-0.9,0-1.9,0-2.8,0C-828.1,210.6-828.1,209.7-828.1,208.8
			z"/>
		<path class="st0" d="M-803.9,208.8c0.9,0,1.8,0,2.8,0c0,0.9,0,1.8,0,2.7c-0.9,0-1.8,0-2.8,0C-803.9,210.6-803.9,209.7-803.9,208.8
			z"/>
		<g>
			<path class="st0" d="M-1124.2,231.1c3.3-7.3,6.6-14.7,10-22c0.8,0,1.5,0,2.3,0c3.3,7.3,6.6,14.6,10,21.9c-0.9,0-1.8,0-2.7,0.1
				c-0.8-1.9-1.7-3.8-2.5-5.7c-4,0-7.9,0-11.9,0c-0.8,1.9-1.7,3.8-2.6,5.7C-1122.6,231.1-1123.4,231.1-1124.2,231.1z M-1113.2,212.2
				c-1.6,3.6-3.3,7.3-4.9,10.9c3.3,0,6.6,0,9.8,0C-1109.9,219.5-1111.4,215.8-1113.2,212.2z"/>
		</g>
		<path class="st0" d="M-994.1,209.3c0.8,0,1.7,0,2.5,0c0,7.3,0,14.5,0,21.8c-0.8,0-1.7,0-2.5,0
			C-994.1,223.9-994.1,216.6-994.1,209.3z"/>
		<g>
			<path class="st0" d="M-849.8,209.3c4.4,0.2,9.1-0.8,13.3,1.3c3.6,1.7,5.9,5.5,5.9,9.4c0.2,4-2.1,8-5.7,9.8
				c-4.1,2.2-9,1.1-13.5,1.4C-849.8,223.8-849.8,216.6-849.8,209.3z M-847.3,211.7c0,5.7,0,11.4,0,17.2c3.6-0.1,7.7,0.6,10.8-1.7
				c4.4-3.1,4.4-10.6,0-13.7C-839.6,211-843.7,211.7-847.3,211.7z"/>
		</g>
		<path class="st0" d="M-760.6,209.3c0.9,0,1.9,0.1,2.8,0.1c2,6,4.1,12,6.2,18c1.9-6.1,4-12.1,5.9-18.1c0.7,0,1.4,0,2.1,0
			c2,6.1,4,12.1,5.9,18.2c2.1-5.8,4-11.7,6-17.5c0.4-1.1,2-0.4,2.8-0.6c-2.6,7.4-5.2,14.7-7.8,22.1c-0.7,0-1.4,0-2.1,0
			c-2-5.8-3.9-11.7-6-17.5c-2.1,5.8-4,11.7-6,17.6c-0.7,0-1.4,0-2.1,0C-755.4,224-758.1,216.6-760.6,209.3z"/>
		<path class="st0" d="M-1028.9,210.2c0.8,0,1.6,0,2.4,0c0,1.6,0,3.2,0,4.9c1.7,0,3.4,0,5.1,0c0,0.7,0,1.4,0,2.2c-1.7,0-3.4,0-5.1,0
			c0,3.2-0.1,6.4,0,9.6c0,0.9,0.5,1.9,1.4,2.2c1.2,0.4,2.5,0,3.7-0.2c-0.1,0.7-0.1,1.4-0.2,2.2c-1.9,0.5-4,0.8-5.7-0.3
			c-1.2-0.8-1.6-2.4-1.6-3.8c0-3.2,0-6.4,0-9.6c-0.7,0-1.5,0-2.2,0c0-0.7,0-1.4,0-2.2c0.7,0,1.5,0,2.2,0
			C-1028.9,213.4-1028.9,211.8-1028.9,210.2z"/>
		<path class="st0" d="M-899.6,210.2c0.8,0,1.6,0,2.4,0c0,1.6,0,3.2,0,4.9c1.7,0,3.4,0,5.1,0c0,0.7,0,1.4,0,2.2c-1.7,0-3.4,0-5.1,0
			c0,3.2-0.1,6.4,0,9.6c0,0.9,0.5,1.9,1.4,2.2c1.2,0.4,2.5,0,3.7-0.2c0,0.7-0.1,1.4-0.1,2.2c-1.8,0.5-4,0.9-5.7-0.3
			c-1.3-0.8-1.7-2.4-1.7-3.9c0-3.2,0-6.4,0-9.6c-0.8,0-1.5,0-2.2,0c0-0.7,0-1.4,0-2.2c0.7,0,1.5,0,2.2,0
			C-899.6,213.4-899.6,211.8-899.6,210.2z"/>
		<path class="st0" d="M-797.3,210.2c0.8,0,1.6,0,2.4,0c0,1.6,0,3.2,0,4.9c1.7,0,3.4,0,5.2,0c0,0.7-0.1,1.4-0.1,2.2
			c-1.7,0-3.4,0-5.1,0c0,3.1,0,6.1,0,9.2c0,0.9,0.2,2,1.1,2.5c1.3,0.6,2.7,0.2,4-0.1c0,0.7,0,1.4,0,2c-1.8,0.7-4.1,1-5.8-0.1
			c-1.3-0.8-1.7-2.4-1.7-3.8c0-3.2,0-6.5,0-9.7c-0.8,0-1.5,0-2.2,0c0-0.7,0-1.4,0-2.2c0.7,0,1.5,0,2.2,0
			C-797.3,213.4-797.3,211.8-797.3,210.2z"/>
		<path class="st0" d="M-1098.7,215.5c2.9-1.5,6.3-0.5,9,0.9c-0.3,0.7-0.7,1.3-1,2c-2-1.1-4.4-2.1-6.7-1.1c-1.3,0.5-1.8,2.5-0.6,3.3
			c2.3,1.6,5.6,1.4,7.7,3.5c1.8,2,1,5.5-1.4,6.6c-3.3,1.7-7.3,0.5-10.1-1.5c0.4-0.6,0.8-1.2,1.2-1.8c2.1,1.4,4.8,2.7,7.3,1.7
			c1.4-0.5,2.1-2.6,1-3.6c-2.3-1.7-5.6-1.4-7.7-3.4C-1102,220.1-1101.1,216.6-1098.7,215.5z"/>
		<g>
			<path class="st0" d="M-1084.9,218.1c1.2-1.5,2.7-3,4.7-3.3c3.6-0.8,7.4,1.5,8.6,4.9c1.1,3.2,0.6,7-1.8,9.5
				c-2.2,2.3-5.9,3-8.7,1.5c-1.2-0.6-2-1.6-2.8-2.5c0,2.6,0,5.3,0,7.9c-0.8,0-1.6,0-2.4,0c0-7,0-14.1,0-21.1c0.8,0,1.6,0,2.4,0
				C-1084.9,216-1084.9,217.1-1084.9,218.1z M-1081.4,217.3c-3.6,1.5-4.7,6.4-2.5,9.4c1.6,2.4,5,3.3,7.5,1.8
				c3.1-1.8,3.7-6.4,1.8-9.3C-1076,217.1-1079,216.2-1081.4,217.3z"/>
		</g>
		<path class="st0" d="M-1060.7,219c1.2-2.5,3.7-4.4,6.6-4.3c0,0.9,0,1.7,0,2.6c-2.8,0-5.6,1.9-6.2,4.7c-0.7,3-0.2,6.1-0.3,9.1
			c-0.8,0-1.7,0-2.5,0c0-5.4,0-10.7,0-16.1c0.8,0,1.7,0,2.5,0C-1060.7,216.4-1060.7,217.7-1060.7,219z"/>
		<g>
			<path class="st0" d="M-1051.1,216.6c2.8-2.7,7.8-2.5,10.4,0.4c1.7,1.9,2.2,4.5,2.2,7c-4.3,0.1-8.6,0-12.9,0.1
				c0.4,2.1,1.5,4.2,3.6,5c2.5,1.1,5.4-0.1,7.3-1.9c0.5,0.5,1,0.9,1.5,1.4c-2.7,3.2-7.9,4-11.3,1.6
				C-1054.8,227.1-1055,220-1051.1,216.6z M-1049.3,217.9c-1.3,1-1.8,2.7-2.2,4.3c3.5,0,7,0,10.5,0c-0.3-1.3-0.6-2.8-1.6-3.8
				C-1044.2,216.4-1047.4,216.2-1049.3,217.9z"/>
		</g>
		<g>
			<path class="st0" d="M-1014.5,215c3.4-1,7.4,0.3,9.3,3.2c2.5,3.5,1.7,8.9-1.7,11.5c-3.8,3.1-10.3,2-12.5-2.5
				C-1022.1,222.8-1019.6,216.3-1014.5,215z M-1014.5,217.3c-2.3,1-3.7,3.6-3.5,6.1c0,3.6,3.6,6.7,7.2,5.8c3.7-0.7,5.5-5.2,4.1-8.5
				C-1007.7,217.6-1011.6,215.9-1014.5,217.3z"/>
		</g>
		<path class="st0" d="M-985.6,217.6c1.8-2.9,5.9-3.9,8.9-2.1c1.9,1.1,2.8,3.3,2.8,5.5c0,3.4,0,6.8,0,10.1c-0.8,0-1.6,0-2.4,0
			c-0.1-3.4,0.1-6.8-0.1-10.1c-0.1-1.9-1.4-3.8-3.4-4c-2.6-0.6-5.5,1.3-5.7,4c-0.2,3.4,0,6.7-0.1,10.1c-0.8,0-1.6,0-2.4,0
			c-0.1-5.4,0.1-10.7-0.1-16.1c0.8,0,1.7,0,2.5,0C-985.5,215.9-985.6,216.8-985.6,217.6z"/>
		<path class="st0" d="M-969.3,215.4c2.9-1.4,6.2-0.5,8.9,1c-0.3,0.6-0.7,1.3-1,2c-2-1.1-4.4-2.2-6.7-1.1c-1.3,0.5-1.8,2.5-0.6,3.3
			c2.4,1.6,5.6,1.4,7.7,3.6c1.9,2.1,0.8,5.7-1.7,6.7c-3.3,1.5-7,0.3-9.8-1.6c0.4-0.6,0.8-1.2,1.2-1.8c1.7,1.1,3.6,2.1,5.6,2
			c1.2,0,2.7-0.5,3.2-1.8c0.4-1-0.1-2.1-1-2.5c-2.3-1.3-5.2-1.2-7.1-3C-972.7,220.2-971.7,216.5-969.3,215.4z"/>
		<g>
			<path class="st0" d="M-952.5,215.4c2.7-1.4,6.2-0.6,8.4,1.5c4,3.9,3,11.9-2.4,14.1c-3.2,1.4-7,0.1-9-2.7c0,2.6,0,5.3,0,7.9
				c-0.8,0-1.7,0-2.5,0c0-7,0-14.1,0-21.1c0.8,0,1.7,0,2.5,0c0,1,0,2,0,3C-954.6,217-953.7,215.9-952.5,215.4z M-952,217.3
				c-3.3,1.4-4.6,5.8-2.9,8.8c1.3,2.7,4.9,4,7.6,2.6c3.3-1.6,4-6.4,2.1-9.3C-946.6,217.2-949.7,216.2-952,217.3z"/>
		</g>
		<path class="st0" d="M-931.3,218.9c1.2-2.5,3.7-4.3,6.5-4.3c0,0.9,0,1.7,0,2.6c-2.4,0.1-4.8,1.2-5.8,3.5
			c-1.4,3.3-0.6,6.9-0.8,10.3c-0.8,0-1.6,0-2.5,0c0-5.4,0-10.7,0-16.1c0.8,0,1.6,0,2.4,0C-931.4,216.3-931.3,217.6-931.3,218.9z"/>
		<g>
			<path class="st0" d="M-921.4,216.3c2.9-2.4,7.6-2.2,10.1,0.7c1.7,1.9,2.1,4.5,2.1,7c-4.3,0-8.6,0-12.9,0c0.4,1.9,1.2,3.8,3,4.7
				c2.6,1.4,5.8,0.5,7.8-1.5c0.4,0.5,1.4,0.8,1.3,1.5c-2.8,3.5-8.6,3.8-11.9,0.7C-925.6,226-925.3,219.4-921.4,216.3z M-919.9,217.9
				c-1.3,1-1.9,2.7-2.1,4.3c3.5,0,7,0,10.4,0c-0.3-1.4-0.7-3-1.8-4C-915.1,216.4-918.1,216.3-919.9,217.9z"/>
		</g>
		<g>
			<path class="st0" d="M-871.2,216.2c2.9-2.3,7.7-2,10.1,0.9c1.6,1.9,2,4.5,2.1,6.9c-4.3,0-8.6,0-12.9,0c0.4,2,1.4,4.1,3.4,4.9
				c2.6,1.1,5.5,0.1,7.4-1.8c0.5,0.5,1,0.9,1.5,1.4c-2.8,3.2-8,4-11.5,1.5C-875.4,226.9-875.4,219.5-871.2,216.2z M-869.9,218
				c-1.2,1-1.7,2.7-2.1,4.2c3.5,0,7,0,10.5,0c-0.3-1.4-0.6-2.8-1.6-3.9C-864.8,216.3-868,216.2-869.9,218z"/>
		</g>
		<g>
			<path class="st0" d="M-823.2,221c0.5-4,4.7-6.9,8.7-6.2c2.1,0.2,3.8,1.5,5.1,3c0-0.9,0-1.8,0-2.8c0.8,0,1.6,0,2.4,0
				c0,4.6,0,9.2,0,13.7c0,2.3-1,4.7-2.9,6c-3.8,2.4-8.9,1.5-12.6-0.7c0.4-0.7,0.7-1.3,1.1-2c2.8,1.9,6.8,2.9,9.9,1
				c2.2-1.4,2.3-4.2,2.2-6.5c-2,2.5-5.4,4-8.5,3C-821.6,228.7-823.9,224.7-823.2,221z M-816.3,216.9c-1.5,0.2-3,1.1-3.7,2.4
				c-1.6,2.5-0.7,6.2,1.9,7.6c3.3,2,8.3-0.1,8.7-4C-808.8,219.2-812.7,216.2-816.3,216.9z"/>
		</g>
		<g>
			<path class="st0" d="M-787.7,216.1c2.9-1.2,6.4-1.9,9.4-0.7c2,0.8,3.3,2.9,3.3,5.1c0.1,3.5,0,7.1,0,10.6c-0.8,0-1.6,0-2.4,0
				c0-0.8,0-1.5,0-2.3c-2.4,2.9-7.1,3.6-10.1,1.3c-2.5-1.8-2.3-6.2,0.4-7.8c2.9-1.8,6.6-1.2,9.8-0.5c-0.1-1.6-0.4-3.4-1.9-4.2
				c-2.5-1.3-5.4-0.5-7.8,0.5C-787.2,217.4-787.5,216.8-787.7,216.1z M-785.1,223.7c-1.9,0.9-2,3.9-0.3,5c2.3,1.5,5.8,0.9,7.4-1.2
				c0.9-1.1,0.7-2.5,0.8-3.8C-779.8,223.1-782.7,222.5-785.1,223.7z"/>
		</g>
		<g>
			<path class="st0" d="M-721.4,214.8c4.7-1.1,9.8,2.7,10,7.6c0.6,4.8-3.7,9.4-8.6,9.1c-4.5,0.1-8.5-4.1-8.2-8.6
				C-728.2,219.1-725.2,215.4-721.4,214.8z M-722.3,217.3c-3,1.3-4.1,5.1-3.1,8c1,3,4.6,4.8,7.6,3.6c3.6-1.3,4.9-6.1,2.9-9.3
				C-716.2,217.2-719.6,216.1-722.3,217.3z"/>
		</g>
		<path class="st0" d="M-707,218.9c1.3-2.4,3.7-4.3,6.6-4.3c0,0.9,0,1.7,0,2.6c-2.1,0.1-4.3,0.9-5.4,2.9c-1.9,3.3-0.9,7.3-1.2,10.9
			c-0.8,0-1.6,0-2.4,0c0-5.4,0-10.7,0-16.1c0.8,0,1.6,0,2.4,0C-707,216.3-707,217.6-707,218.9z"/>
		<path class="st0" d="M-1068.8,231.1c0-5.4,0-10.7,0-16.1c0.8,0,1.6,0,2.4,0c0,5.4,0,10.7,0,16.1
			C-1067.2,231.1-1068,231.1-1068.8,231.1z"/>
		<path class="st0" d="M-939.4,231.1c0-5.4-0.1-10.8,0-16.1c0.8,0,1.6,0,2.4,0c0,5.4,0,10.7,0,16.1
			C-937.8,231.1-938.6,231.1-939.4,231.1z"/>
		<path class="st0" d="M-828,215c0.8,0,1.6,0,2.4,0c0,5.4,0,10.7,0,16.1c-0.8,0-1.6,0-2.4,0C-828,225.8-828,220.4-828,215z"/>
		<path class="st0" d="M-803.8,215c0.8,0,1.6,0,2.5,0c0,5.4,0,10.7,0,16.1c-0.8,0-1.6,0-2.5,0C-803.8,225.8-803.8,220.4-803.8,215z"
			/>
	</g>
</g>
<g>
	<path class="st1" d="M-2535.3-3.3c8.8-3.1,18.2-4.2,27.4-3.4c2.4,0.2,4.8,0.6,7.1,1.1c4.9,1.1,9.7,2.7,14.2,5
		c2.1,1,4.1,2.1,6.1,3.3c3.8,2.4,7.4,5.3,10.7,8.5c1.2,1.2,2.4,2.5,3.5,3.8c2.9,3.4,5.5,7.1,7.6,11.1c0.9,1.7,1.7,3.4,2.5,5.2
		c2,4.7,3.3,9.7,4.1,14.8c0.4,2.5,0.6,5.1,0.7,7.6c-0.5,0.2-1.6,0.5-2.1,0.7c-6.2,1.7-12.3,4.1-17.6,7.8c-1.1,0.7-2.1,1.4-3.2,2.1
		c1.2-5.6,1.4-11.5,0.2-17.1c-0.5-2.1-1.1-4.2-1.8-6.2c-1.8-4.5-4.4-8.8-7.6-12.4c-1.2-1.3-2.4-2.5-3.7-3.7
		c-3.8-3.4-8.4-5.9-13.1-7.7c-2-0.7-4.1-1.2-6.2-1.7c-10.6-1.9-21.9,0.5-30.6,6.7c-9.9,6.8-16.4,18.2-17.3,30.1
		c-0.2,2.6-0.1,5.1,0.2,7.7c0.2,1.4,0.4,2.9,0.7,4.3c-0.9-0.7-1.9-1.3-2.8-1.9c-1.8-1.2-3.7-2.4-5.7-3.4c-4.6-2.4-9.5-3.9-14.4-5.4
		c0-0.5,0.1-1.6,0.1-2.1c0.2-2.4,0.4-4.8,0.8-7.2c1.9-10.2,6.3-19.9,12.8-28.1C-2555.6,7.6-2546,0.8-2535.3-3.3z"/>
	<path class="st1" d="M-2629.2,69.6c10.9-5.8,23.3-8.7,35.6-7.8c1.9,0.2,3.8,0.4,5.7,0.5c1.2,7.5,0.3,15.1,0.5,22.7
		c-1.2-0.2-2.3-0.5-3.5-0.7c-11.8-2.4-24.5,1-33.7,8.7c-10.3,8.4-15.9,22-14.5,35.1c0.3,2.9,0.9,5.8,1.7,8.7
		c1.8,4.9,4.3,9.6,7.6,13.6c1.4,1.6,2.9,3.2,4.5,4.6c4.6,3.9,10,6.9,15.8,8.5c2.4,0.7,4.9,1.1,7.4,1.4c6.8,0.6,13.8-0.6,20-3.4
		c2.7-1.1,5.1-3.5,5.4-6.6c0.4-4.8,0-9.7,0.1-14.6c0-2.9,0-5.8,0-8.7c-0.1-7.4,0.2-14.9-0.2-22.3c0.2-0.4,0.6-1.1,0.9-1.4
		c3,4.8,6.4,9.4,9.6,14.1c1.1,1.6,2.2,3.2,3.3,4.8c2.5,3.7,5.2,7.2,7.6,10.9c0.9,1.3,0.5,2.9,0.7,4.4c0,2.6-0.1,5.3-0.1,8
		c-0.3,7.5,1.6,16.3-4.2,22.3c-9,8.4-21.2,12.7-33.3,14.2c-3,0.3-6,0.4-9.1,0.3c-6.8-0.4-13.5-1.8-19.9-4.2
		c-2.1-0.8-4.1-1.8-6.1-2.8c-4.9-2.6-9.4-5.8-13.6-9.5c-1.6-1.4-3.1-3-4.5-4.6c-3.7-4.3-6.9-9-9.4-14.1c-0.9-1.8-1.7-3.7-2.4-5.6
		c-2.2-6-3.5-12.4-3.9-18.8c-0.1-2.7-0.1-5.3,0.1-8c0.9-11.2,4.8-22,11.1-31.2C-2644.4,80.7-2637.2,74.5-2629.2,69.6z"/>
	<path class="st1" d="M-2440.6,63.4c0.4-0.4,0.9-0.7,1.3-1.1c4.9-0.4,9.9-0.7,14.8-0.4c14.9,1.3,29.3,7.9,39.8,18.6
		c1.2,1.2,2.4,2.5,3.5,3.8c3.1,3.7,5.7,7.8,7.9,12c0.9,1.9,1.8,3.9,2.6,5.8c2,5.5,3.4,11.3,3.8,17.2c0.2,3,0.2,6,0.1,9.1
		c-1.3,25.7-20.1,49.1-44.8,56.1c-3.2,0.9-6.4,1.5-9.6,2c-6.7,0.9-13.5,0.6-20.1-0.7c-2.3-0.5-4.6-1.1-6.8-1.7
		c-5.1-1.6-10.1-3.9-14.7-6.8c-1.9-1.3-3.8-2.6-5.6-4.1c-4.9-4.8-4.9-11.9-4.7-18.2c0-5.4,0-10.7,0-16.1c7.3-10.5,14.5-21,21.9-31.5
		c-0.1,15.9,0,31.9-0.1,47.9c0.6,1.9,1.6,3.6,3,5.1c5.4,2.9,11.4,4.4,17.5,4.8c2.9,0,5.8-0.2,8.7-0.7c18.7-3.1,33.7-20.8,33.4-39.8
		c0-2.7-0.2-5.4-0.7-8c-1.1-5.4-3.2-10.6-6.3-15.2c-1.1-1.5-2.2-3-3.4-4.4c-10.1-11.4-26.8-16.2-41.4-12c0-4.8,0-9.6,0-14.4
		C-2440.5,68.2-2440.5,65.8-2440.6,63.4z"/>
	<path class="st1" d="M-2576.5,65.5c1.8,0.8,3.5,1.6,5.3,2.6c1.7,0.9,3.4,1.9,5,3c4.4,3.1,8.4,6.8,11.7,10.9
		c1.2,1.6,2.4,3.2,3.5,4.8c2.9,4.2,5.8,8.4,8.7,12.6c1.2,1.7,2.3,3.3,3.5,5c3.2,4.6,6.4,9.2,9.6,13.8c1.1,1.6,2.2,3.2,3.3,4.7
		c3.2,4.6,6.3,9.1,9.5,13.7c0.9,1.2,1.8,2.4,2.7,3.7c3.2-4.8,6.6-9.4,9.7-14.3c7.1-9.8,13.8-19.8,20.7-29.6
		c4.4-6.1,8.3-12.6,13.3-18.1c5.3-5.5,11.8-9.6,18.7-12.8c0.1,2.4,0.1,4.7,0.1,7.1c0,2.6,0,5.2,0,7.8c-0.3,3.3,0.9,7-1.1,9.9
		c-20.5,29.5-41.1,59-61.5,88.6c-5-7-9.8-14.1-14.8-21.2c-1.2-1.8-2.5-3.5-3.7-5.3c-3.2-4.6-6.4-9.2-9.6-13.8
		c-1.2-1.7-2.3-3.4-3.5-5c-3.2-4.6-6.4-9.2-9.6-13.8c-1.1-1.6-2.2-3.1-3.3-4.7c-3.1-4.5-6.2-9-9.4-13.5c-1.2-1.7-2.3-3.4-3.5-5.1
		c-1.7-2.6-3.7-5-5.2-7.7c-0.5-2.7-0.2-5.5-0.2-8.3c0-2.6,0-5.1,0-7.7C-2576.5,70.3-2576.5,67.9-2576.5,65.5z"/>
	<g>
		<g>
			<path class="st1" d="M-2892.6,243.9c11.9-12.8,34.2-12.3,46.3,0c-2.3,2.7-4.7,5.4-7,8c-3.4-3.2-7.4-6.1-12.1-7
				c-6.6-1.6-14,0.4-18.7,5.5c-7.3,7.8-7.7,20.9-1.2,29.4c4.5,6,12.6,8.8,19.9,7c4.9-0.9,9-4.1,12.7-7.3c2.2,2.3,4.5,4.6,6.8,6.9
				c-2.7,2.9-5.8,5.4-9.2,7.4c-5.9,3-12.5,3.5-19,3.3c-7.6-1-14.9-4.7-19.8-10.6C-2904.1,274.4-2903.5,255.1-2892.6,243.9z"/>
			<path class="st1" d="M-2751.2,242.2c12.3-11,32.7-9.9,44.4,1.4c-1.8,3.1-4.5,5.5-6.7,8.2c-3.8-3.2-8-6.3-13-7.1
				c-7-1.5-14.8,1.3-19.2,7c-6.1,7.8-6.1,19.7-0.2,27.7c4.3,6,12.2,8.9,19.4,7.5c5.2-0.8,9.5-4.1,13.3-7.5c2.3,2.3,4.6,4.6,7,6.9
				c-8.9,10.4-24.4,13.5-36.9,8.3c-8-3.3-14.3-10.4-16.9-18.7c-0.5-1.9-1-3.8-1.2-5.8C-2762.5,259.9-2759.1,249-2751.2,242.2z"/>
			<path class="st1" d="M-2317.5,243c3.3-4.8,8.9-7.3,14.5-8c2-0.1,4-0.1,6,0c5.7,0.3,11.3,2.1,16.1,5.3c1,0.7,2.1,1.5,3.1,2.2
				c-2,2.6-3.9,5.3-5.8,8c-0.5-0.3-1.4-0.9-1.9-1.3c-4.7-3.2-10.4-5.4-16.1-4.8c-3,0.4-6.4,1.7-7.6,4.8c-0.7,2.5-0.5,5.8,1.9,7.4
				c4.2,2.9,9.5,3.6,14.4,5c1.6,0.4,3.2,0.9,4.7,1.5c4,1.5,7.7,3.9,10.2,7.4c0.7,1.6,1.3,3.3,1.8,5.1c0.1,4,0,8.2-2.1,11.7
				c-1.9,3.6-5.4,6-9,7.7c-2.3,0.7-4.6,1.2-6.9,1.6c-4.5,0.2-9.1,0-13.5-1.2c-1.9-0.5-3.7-1.2-5.5-2c-3.5-1.6-6.7-3.9-9.7-6.3
				c2.2-2.5,4.4-5,6.5-7.6c2.5,1.9,5.1,3.8,7.9,5.4c2,0.8,4.1,1.5,6.3,2c4.2,0.6,9,0.8,12.6-1.7c3.1-2,3.9-6.9,1.4-9.7
				c-1.6-1.7-3.8-2.5-5.9-3.3c-1.5-0.5-3-0.9-4.5-1.2c-5.9-1.4-11.9-2.9-16.9-6.6c-1.6-1.6-2.8-3.4-3.9-5.3
				C-2320.8,253.7-2320.8,247.6-2317.5,243z"/>
			<path class="st1" d="M-2262.5,235.7c1.2,0,2.3,0,3.5,0c1.7,0,3.4,0,5.1,0c0.5,0,1.5,0,2,0c-0.1,6.6,0,13.2,0,19.8
				c0,3.3,0,6.6,0,9.9c-0.1,8.3-0.1,16.7,0,25c0,1.8,0,3.6,0,5.4c-1.1,0-2.1,0-3.2,0c-2.5,0-4.9,0-7.4,0c0-2.7,0-5.5,0-8.2
				c0-3,0-6.1,0-9.1c0-8.6,0-17.3,0-25.9c0-3.3,0-6.6,0-10C-2262.5,240.3-2262.5,238-2262.5,235.7z"/>
			<path class="st1" d="M-2239.3,235.7c0.6,0,1.7,0,2.3,0c4,0,8,0,12,0c1.3,0,2.7,0,4,0c3.4,0,6.9,0,10.4,0c1.2,0,2.5,0,3.7,0
				c3.3,0,6.7,0,10.1,0c0.8,0,2.5,0,3.3,0c1,0,2.1,0,3.2,0c0,3.3,0,6.5,0,9.8c-2.3,0-4.6,0-6.9,0c-0.8,0-2.5,0-3.3,0
				c-3,0-5.9,0-8.9,0c0.2,16.8,0.1,33.5,0.1,50.3c-2.7,0-5.3,0.1-8,0c-1.1-0.1-2.2-0.3-3.2-0.5c1.3-8.2,0.2-16.6,0.6-24.9
				c0-3.3,0-6.7,0-10c0-5,0.1-10,0.1-15c-1.8,0-3.6,0-5.4,0c-1.6,0-3.2,0-4.7,0c-3,0-6,0-9,0c0-1.3,0-2.7,0-4
				C-2239.3,239.5-2239.3,237.6-2239.3,235.7z"/>
			<path class="st1" d="M-2834.3,235.7c3.8,0,7.6,0,11.4,0.1c6,9.5,12.2,18.9,18.2,28.4c5.9-9.6,12.2-19,18.2-28.5
				c3.7,0,7.5,0,11.3,0c0.1,11.1,0,22.3,0.1,33.5c0,2,0,4.1,0,6.1c0,3.1,0,6.3,0,9.4c0,3.7,0,7.4,0,11.1c-1.5,0-3.1,0-4.6,0.1
				c-2,0-4,0-6,0c0.1-14.3-0.1-28.6,0.1-42.9c-6.7,9.3-12.8,19-19.2,28.4c-6.6-9.3-12.7-19-19.2-28.4c0.1,14.3-0.1,28.6,0.1,42.8
				c-3.5,0-6.9,0-10.4,0c0-0.5,0-1.4,0-1.8C-2834.2,274.5-2834.2,255.1-2834.3,235.7z"/>
			<path class="st1" d="M-2668.9,235.7c3.5,0,7.1,0,10.6,0c0.1,12.7-0.3,25.4,0.2,38.1c0.6,4.8,3.1,9.6,7.5,11.9
				c5.2,2.3,11.7,2.2,16.6-1c3.8-2.6,5.6-7.3,5.8-11.8c0.3-5.4,0-10.9,0.1-16.4c0-3,0-6,0-8.9c0-4,0-8,0.1-11.9c3.5,0,7,0,10.6,0
				c0,11.7,0,23.5,0,35.2c0,8-2.7,16.4-9.3,21.3c-3,2.1-6.4,3.5-10,4.2c-7.6,1-15.9,0.7-22.4-3.8c-6.7-4.6-9.6-12.9-9.7-20.8
				C-2668.9,259.8-2668.8,247.7-2668.9,235.7z"/>
			<path class="st1" d="M-2602.3,235.7c3.3,0,6.6,0,9.8,0c10.8,13.8,21.6,27.7,32.3,41.6c0.1-13.7-0.1-27.5,0.1-41.2
				c3.1-1,6.9-0.2,10.3-0.4c-0.1,7.3,0,14.6,0,21.8c0,3,0,6,0,8.9c0,8.3,0,16.5,0,24.8c0,1.5,0,3,0,4.6c-1.5,0-3.1,0.1-4.6,0.1
				c-1.6-0.3-3.8,0.5-5-1c-2.8-3.3-5.3-6.9-8-10.2c-1.3-1.7-2.6-3.4-3.9-5c-6.9-8.9-13.8-17.7-20.6-26.6c0.1,14.2-0.1,28.5,0.1,42.7
				c-3.5,0-7,0-10.4,0C-2602.2,275.7-2602.2,255.7-2602.3,235.7z"/>
			<path class="st1" d="M-2532.9,235.6c3.6,0.1,7.2,0,10.8,0c0,0.7,0,2,0,2.7c0,8.3,0,16.6,0,24.9c0,3,0,6,0,9c0,7.9,0,15.7,0,23.6
				c-3.5,0.1-7.1,0.1-10.6,0C-2532.9,275.7-2532.5,255.6-2532.9,235.6z"/>
			<path class="st1" d="M-2510.9,235.6c3.9,0,7.8,0,11.7-0.1c0.4,1,0.9,1.9,1.3,2.9c1,2.4,1.9,4.9,2.8,7.3
				c2.2,5.5,4.3,10.9,6.5,16.4c0.8,2.1,1.7,4.2,2.5,6.4c1.8,4.3,3.1,8.8,5.3,12.9c3.5-9.5,7.3-18.8,10.9-28.2
				c2.3-5.8,4.6-11.6,6.7-17.5l0.2-0.2c3.9,0.1,7.8,0.1,11.7,0.1c-4.8,11.2-9.3,22.5-14,33.8c-2.6,6.2-5.1,12.3-7.6,18.6
				c-1.2,2.7-2.3,5.4-3.5,8.1c-1.5,0-3.1,0.1-4.6,0.1c-1.6,0-3.1,0-4.7-0.1c-0.2-0.4-0.6-1.2-0.8-1.6c-2.4-5.7-4.7-11.5-7.1-17.2
				c-0.9-2.1-1.7-4.1-2.6-6.2c-2.4-5.9-4.9-11.7-7.3-17.6c-0.9-2.2-1.8-4.4-2.7-6.7C-2507.7,243.1-2509.2,239.4-2510.9,235.6z"/>
			<path class="st1" d="M-2440.1,244.5c0-3,0-5.9,0-8.9c14.9,0,29.8,0,44.7,0c-0.1,3.2-0.1,6.3-0.1,9.5c-11.3,0-22.7,0-34,0
				c0,5.2,0,10.4,0,15.6c10.1,0.1,20.1-0.1,30.2,0c0,3.2,0,6.3,0,9.5c-2.9,0-5.8,0-8.7,0c-2.4,0-4.9,0-7.3,0c-4.7,0-9.5,0-14.2,0
				c0.1,5.4,0.1,10.7,0,16.1c0.4,0,1.2,0,1.6,0c2.4,0,4.8,0.1,7.1,0.1c8.6,0,17.2,0,25.9,0c0,3.1-0.1,6.2,0,9.4
				c-11.4,0.1-22.9,0-34.4,0c-2.7,0-5.4,0-8.1,0c-0.7,0-2,0-2.7-0.1c0.1-14.1,0-28.2,0-42.3
				C-2440.1,250.5-2440.1,247.5-2440.1,244.5z"/>
			<g>
				<path class="st1" d="M-2381.5,235.7c9-0.1,18,0,26.9-0.1c6.4,0,13.3,1.7,17.7,6.7c4.6,5.2,5.3,13,3.2,19.5
					c-2,5.9-7.4,9.6-13.1,11.5c3.1,4.4,6.3,8.7,9.4,13.1c1.1,1.6,2.3,3.2,3.4,4.7c1.1,1.5,2.2,3.1,3.3,4.7c-2.2,0-4.5,0-6.7,0
					c-2,0-4-0.1-6-0.1c-4.8-6.9-9.7-13.7-14.5-20.7c-4.4-0.1-8.8-0.1-13.3,0c0.1,6.9,0,13.8,0.1,20.8c-3.5,0-7.1,0-10.6,0
					c0-19.3,0-38.7,0-58C-2381.7,237.3-2381.6,236.2-2381.5,235.7z M-2371.1,245.3c0,6.7,0.1,13.5,0,20.2c4.9,0,9.7,0,14.6,0
					c3.4,0,7.1-0.5,9.8-2.8c4.4-3.5,4.6-11.1,0.2-14.8c-2.5-2.1-5.9-2.7-9.1-2.7C-2360.8,245.3-2366,245.3-2371.1,245.3z"/>
			</g>
			<path class="st1" d="M-2184.6,235.6c4.2,0,8.5,0,12.7,0c1.7,2.7,3.4,5.5,5.2,8.2c0.8,1.4,1.7,2.7,2.6,4.1c3,4.7,5.9,9.4,9,14
				c5.7-8.7,11.3-17.5,16.8-26.3c4.1-0.1,8.3,0,12.5,0c-0.4,0.6-1.3,1.9-1.7,2.5c-1.5,2.1-2.9,4.3-4.3,6.5
				c-3.5,5.2-6.9,10.4-10.4,15.7c-1.4,2.1-2.8,4.3-4.3,6.4c-1.1,1.7-2.4,3.4-3.3,5.3c-0.5,3.7-0.1,7.5-0.2,11.2c0,2,0,4,0,6
				c0,2.2,0,4.4,0,6.6c-3.6,0-7.2,0-10.8,0c0-2.6,0-5.3,0.1-7.9c0-2.2,0.1-4.4,0.1-6.6c-0.3-3.7,1-7.9-1.4-11.1
				C-2169.6,258.7-2177,247.1-2184.6,235.6z"/>
		</g>
		<g>
			<path class="st1" d="M-2496.7,318.9c1.4-0.1,2.8-0.1,4.2-0.2c0.1,5.4,0,10.7,0,16.1c3.2-5,10.3-6.7,15.4-3.6
				c3.3,1.9,4.8,5.8,4.8,9.5c0.1,5.8,0.1,11.7-0.1,17.5c-1.4,0-2.7,0-4.1,0c-0.2-6.1,0.3-12.3-0.3-18.5c-0.4-3.9-4.3-6.6-8.1-6.1
				c-4.1,0.2-7.5,3.8-7.5,7.9c-0.2,5.6,0,11.1-0.1,16.7c-1.4,0-2.8,0-4.2,0C-2496.7,345-2496.7,332-2496.7,318.9z"/>
			<path class="st1" d="M-2292.4,318.9c1.4,0,2.8,0,4.2,0c0,13.1,0,26.1,0,39.2c-1.4,0-2.8,0-4.2,0
				C-2292.4,345-2292.4,332-2292.4,318.9z"/>
			<path class="st1" d="M-2166.2,318.9c1.4-0.1,2.8-0.1,4.2-0.2c0,13.1,0,26.3,0,39.4c-1.4,0-2.8,0-4.2,0
				C-2166.1,345-2166.1,332-2166.2,318.9z"/>
			<g>
				<path class="st1" d="M-2134,318.8c1.4,0,2.8,0,4.2,0.1c0,13.1,0,26.2,0,39.3c-1.4,0-2.8,0-4.2,0c0-1.8,0-3.5,0-5.3
					c-2.7,3.6-6.9,6.5-11.6,5.9c-7.1-0.3-12.6-7-12.4-13.9c-0.5-6.7,4.1-13.7,11-14.9c5-1.1,10.1,1.4,13,5.5
					C-2134.1,329.8-2134.1,324.3-2134,318.8z M-2147.8,334.2c-8.2,3.5-7.7,17.5,0.9,20.3c6.6,2.4,13.6-3.9,13-10.6
					C-2133.6,337-2141.4,331.2-2147.8,334.2z"/>
			</g>
			<path class="st1" d="M-2805.7,319.6c1.6,0,3.2,0,4.8,0c0,1.6,0,3.1,0,4.7c-1.6,0-3.2,0-4.8,0
				C-2805.7,322.7-2805.7,321.1-2805.7,319.6z"/>
			<path class="st1" d="M-2582.2,319.6c1.6,0,3.3,0,4.9,0c0,1.6,0,3.1,0,4.7c-1.6,0-3.2,0-4.8,0.1
				C-2582.1,322.7-2582.2,321.1-2582.2,319.6z"/>
			<path class="st1" d="M-2389.4,319.6c1.6,0,3.2,0,4.8,0c0,1.5,0,3.1,0,4.7c-1.6,0-3.2,0-4.8,0
				C-2389.5,322.7-2389.5,321.1-2389.4,319.6z"/>
			<path class="st1" d="M-2347.6,319.6c1.6,0,3.2,0,4.8,0c0,1.6,0,3.1,0,4.7c-1.6,0-3.2,0-4.8,0
				C-2347.6,322.7-2347.6,321.1-2347.6,319.6z"/>
			<g>
				<path class="st1" d="M-2901.3,358.1c5.8-12.7,11.4-25.4,17.2-38c1.3,0,2.6,0,4,0.1c5.8,12.6,11.3,25.3,17.2,37.9
					c-1.6,0.1-3.2,0.1-4.7,0.1c-1.4-3.3-2.9-6.6-4.4-9.9c-6.8,0-13.7-0.1-20.5,0c-1.4,3.3-2.9,6.6-4.4,9.9
					C-2898.4,358.1-2899.9,358.1-2901.3,358.1z M-2882.2,325.4c-2.8,6.3-5.6,12.6-8.5,18.9c5.7,0,11.3,0,17,0
					C-2876.6,338-2879.2,331.6-2882.2,325.4z"/>
			</g>
			<path class="st1" d="M-2676.4,320.4c1.4,0,2.9,0,4.4,0c0,12.6,0,25.1,0,37.7c-1.5,0-2.9,0-4.4,0
				C-2676.4,345.5-2676.4,333-2676.4,320.4z"/>
			<g>
				<path class="st1" d="M-2426.9,320.4c7.6,0.4,15.8-1.3,22.9,2.2c6.2,2.9,10.2,9.5,10.2,16.3c0.3,6.9-3.6,13.8-9.8,16.9
					c-7.2,3.8-15.6,1.9-23.3,2.4C-2426.9,345.5-2426.9,333-2426.9,320.4z M-2422.6,324.5c0,9.9,0,19.8,0,29.7
					c6.3-0.1,13.3,1.1,18.7-3c7.6-5.4,7.6-18.2,0-23.7C-2409.3,323.4-2416.4,324.6-2422.6,324.5z"/>
			</g>
			<path class="st1" d="M-2272.8,320.4c1.6,0,3.2,0.1,4.8,0.2c3.5,10.4,7,20.8,10.7,31.1c3.4-10.5,6.8-20.9,10.2-31.4
				c1.2,0,2.4,0,3.6,0c3.4,10.5,6.9,20.9,10.3,31.4c3.6-10,6.9-20.2,10.4-30.2c0.7-2,3.4-0.7,4.9-1.1c-4.5,12.7-9,25.5-13.5,38.1
				c-1.2,0-2.4,0-3.6-0.1c-3.4-10.1-6.8-20.3-10.3-30.3c-3.6,10.1-6.9,20.3-10.4,30.4c-1.2,0-2.4,0-3.6,0
				C-2263.8,345.7-2268.3,333.1-2272.8,320.4z"/>
			<path class="st1" d="M-2736.5,321.9c1.4,0,2.8,0,4.2,0c0,2.8,0,5.6,0,8.4c3,0,5.9,0,8.9,0c0,1.2,0,2.5,0,3.7c-2.9,0-5.9,0-8.8,0
				c0.1,5.5-0.1,11.1,0,16.6c0,1.6,0.8,3.3,2.4,3.8c2.1,0.7,4.3,0,6.4-0.4c-0.1,1.2-0.2,2.5-0.3,3.8c-3.2,0.8-7,1.5-9.9-0.5
				c-2.1-1.5-2.8-4.2-2.8-6.6c0-5.6,0-11.1,0-16.7c-1.3,0-2.5,0-3.8,0c0-1.2,0-2.5,0-3.7c1.3,0,2.6,0,3.8,0
				C-2736.5,327.5-2736.5,324.7-2736.5,321.9z"/>
			<path class="st1" d="M-2512.9,321.9c1.4,0,2.8,0,4.2,0c0,2.8,0,5.6,0,8.4c3,0,5.9,0,8.9,0c0,1.2,0,2.5,0,3.7c-3,0-5.9,0-8.9,0
				c0.1,5.5-0.1,11.1,0.1,16.7c0,1.6,0.8,3.3,2.4,3.8c2.1,0.7,4.3,0.1,6.4-0.4c-0.1,1.2-0.2,2.5-0.2,3.8c-3.2,0.8-6.9,1.5-9.8-0.5
				c-2.2-1.4-3-4.2-2.9-6.7c0-5.6,0-11.1,0-16.7c-1.3,0-2.6,0-3.9,0c0-1.2,0-2.5,0-3.7c1.3,0,2.6,0,3.9,0
				C-2512.9,327.5-2512.9,324.7-2512.9,321.9z"/>
			<path class="st1" d="M-2336.2,321.9c1.4,0,2.8,0,4.2,0c0,2.8,0,5.6,0,8.4c3,0,6,0,8.9,0c-0.1,1.2-0.1,2.5-0.2,3.7
				c-2.9,0-5.8,0-8.7,0c0,5.3-0.1,10.6,0,15.9c0,1.6,0.3,3.5,1.9,4.3c2.2,1.1,4.6,0.4,6.9-0.1c0,1.2,0,2.3,0,3.5
				c-3.2,1.2-7,1.7-10-0.2c-2.2-1.4-3-4.2-2.9-6.6c0-5.6,0-11.2,0-16.7c-1.3,0-2.6,0-3.9,0c0-1.2,0-2.5,0-3.7c1.3,0,2.6,0,3.9,0
				C-2336.2,327.5-2336.2,324.7-2336.2,321.9z"/>
			<path class="st1" d="M-2857.2,331.1c5-2.5,10.8-0.9,15.5,1.6c-0.6,1.1-1.1,2.3-1.7,3.4c-3.5-1.8-7.7-3.7-11.5-2
				c-2.2,0.9-3.2,4.2-1,5.7c4,2.8,9.7,2.5,13.2,6.1c3.1,3.4,1.7,9.4-2.4,11.5c-5.7,3-12.6,0.9-17.5-2.6c0.7-1,1.4-2.1,2.1-3.1
				c3.7,2.4,8.3,4.6,12.7,3c2.5-0.8,3.7-4.4,1.7-6.3c-3.9-3-9.6-2.5-13.3-6C-2862.8,339.1-2861.3,333-2857.2,331.1z"/>
			<g>
				<path class="st1" d="M-2833.3,335.6c2-2.7,4.7-5.2,8.1-5.7c6.1-1.3,12.8,2.6,14.8,8.5c2,5.5,1.1,12.2-3,16.4
					c-3.8,4-10.2,5.1-15,2.6c-2-1-3.5-2.7-4.9-4.3c0.1,4.6,0,9.1,0,13.7c-1.4,0-2.8,0-4.2,0c0-12.2,0-24.3,0-36.5c1.4,0,2.8,0,4.2,0
					C-2833.3,332-2833.3,333.8-2833.3,335.6z M-2827.2,334.3c-6.1,2.5-8.1,11-4.3,16.3c2.7,4.1,8.6,5.7,12.9,3.2
					c5.4-3.1,6.4-11,3.1-16C-2817.9,333.9-2823.2,332.4-2827.2,334.3z"/>
			</g>
			<path class="st1" d="M-2791.5,337.2c2.1-4.3,6.4-7.7,11.4-7.5c0,1.5,0,3,0,4.5c-4.9,0-9.6,3.2-10.7,8.1
				c-1.2,5.2-0.4,10.5-0.6,15.8c-1.4,0-2.9,0-4.3,0c0-9.3,0-18.5,0-27.8c1.4,0,2.9,0,4.3,0C-2791.5,332.6-2791.5,334.9-2791.5,337.2
				z"/>
			<g>
				<path class="st1" d="M-2774.9,332.9c4.9-4.6,13.5-4.4,17.9,0.7c3,3.3,3.7,7.8,3.8,12.1c-7.5,0.1-14.9-0.1-22.4,0.1
					c0.7,3.6,2.6,7.3,6.3,8.6c4.4,1.8,9.2-0.1,12.5-3.2c0.8,0.8,1.7,1.6,2.5,2.4c-4.7,5.6-13.6,7-19.6,2.7
					C-2781.3,351.2-2781.6,338.9-2774.9,332.9z M-2771.8,335.2c-2.3,1.8-3.1,4.7-3.8,7.4c6,0,12.1,0,18.1,0c-0.6-2.3-1-4.8-2.7-6.6
					C-2762.9,332.6-2768.5,332.3-2771.8,335.2z"/>
			</g>
			<g>
				<path class="st1" d="M-2711.6,330.2c5.8-1.8,12.7,0.5,16.1,5.6c4.3,6.1,3,15.4-3,19.9c-6.6,5.4-17.7,3.4-21.7-4.3
					C-2724.8,343.8-2720.4,332.5-2711.6,330.2z M-2711.7,334.3c-4,1.8-6.3,6.3-6,10.6c0,6.2,6.3,11.6,12.5,10
					c6.4-1.2,9.6-9,7.2-14.7C-2699.9,334.7-2706.5,331.8-2711.7,334.3z"/>
			</g>
			<path class="st1" d="M-2661.6,334.8c3.2-5,10.3-6.7,15.4-3.7c3.3,1.9,4.8,5.8,4.8,9.4c0.1,5.8,0,11.7,0,17.5c-1.4,0-2.8,0-4.2,0
				c-0.1-5.8,0.2-11.7-0.1-17.5c-0.1-3.3-2.5-6.5-5.9-6.9c-4.5-1-9.5,2.2-9.9,6.9c-0.3,5.8,0,11.7-0.1,17.5c-1.4,0-2.8,0-4.2,0
				c-0.2-9.3,0.1-18.5-0.2-27.8c1.5,0,2.9,0,4.4,0C-2661.6,331.8-2661.6,333.3-2661.6,334.8z"/>
			<path class="st1" d="M-2633.5,331c5-2.4,10.8-0.8,15.4,1.7c-0.6,1.1-1.2,2.2-1.8,3.4c-3.5-1.8-7.7-3.7-11.5-2
				c-2.2,0.9-3.2,4.3-1,5.7c4.1,2.8,9.7,2.5,13.2,6.1c3.2,3.6,1.4,9.8-2.9,11.7c-5.6,2.5-12.2,0.5-17-2.8c0.7-1,1.4-2.1,2.1-3.1
				c2.9,1.8,6.2,3.6,9.8,3.5c2.2,0,4.7-0.8,5.5-3.1c0.7-1.7-0.1-3.6-1.7-4.4c-3.9-2.2-8.9-2.2-12.4-5.2
				C-2639.3,339.2-2637.7,332.9-2633.5,331z"/>
			<g>
				<path class="st1" d="M-2604.4,330.9c4.7-2.3,10.8-1.1,14.5,2.6c6.9,6.8,5.1,20.6-4.2,24.3c-5.5,2.5-12.1,0.2-15.5-4.6
					c0.1,4.5,0,9.1,0,13.6c-1.4,0-2.9,0-4.3,0c0-12.2,0-24.4,0-36.5c1.4,0,2.9,0,4.3,0c0,1.7,0,3.5-0.1,5.2
					C-2608.1,333.8-2606.5,331.9-2604.4,330.9z M-2603.6,334.2c-5.7,2.4-7.9,10-5,15.3c2.3,4.7,8.4,6.9,13.1,4.5
					c5.8-2.8,6.9-11,3.6-16.2C-2594.2,334-2599.5,332.4-2603.6,334.2z"/>
			</g>
			<path class="st1" d="M-2567.7,337c2-4.3,6.3-7.4,11.2-7.4c0,1.5,0,3,0,4.5c-4.1,0.1-8.3,2.1-10,6.1c-2.5,5.6-1,11.9-1.4,17.9
				c-1.4,0-2.8,0-4.2,0c0-9.3,0-18.5,0-27.8c1.4,0,2.8,0,4.2,0C-2567.9,332.5-2567.8,334.8-2567.7,337z"/>
			<g>
				<path class="st1" d="M-2550.7,332.5c5-4.1,13.2-3.7,17.5,1.3c3,3.3,3.7,7.8,3.7,12.1c-7.4,0-14.9,0-22.3,0
					c0.6,3.2,2.1,6.6,5.2,8.1c4.5,2.5,10.1,0.8,13.5-2.7c0.7,0.9,2.4,1.3,2.2,2.6c-4.9,6-14.9,6.6-20.6,1.3
					C-2557.9,349.3-2557.5,337.9-2550.7,332.5z M-2548.1,335.2c-2.3,1.8-3.2,4.6-3.7,7.4c6,0,12,0,18,0c-0.6-2.5-1.1-5.1-3-6.9
					C-2539.7,332.6-2545,332.5-2548.1,335.2z"/>
			</g>
			<g>
				<path class="st1" d="M-2463.8,332.3c5.1-4,13.3-3.5,17.5,1.6c2.8,3.3,3.5,7.7,3.6,11.9c-7.5,0-14.9,0-22.4,0
					c0.6,3.5,2.5,7.1,5.9,8.5c4.4,2,9.5,0.2,12.8-3.1c0.9,0.8,1.7,1.6,2.6,2.4c-4.8,5.6-13.8,7-19.8,2.5
					C-2471.2,350.7-2471.1,338-2463.8,332.3z M-2461.6,335.4c-2.1,1.8-2.9,4.6-3.6,7.2c6,0,12.1,0,18.1,0c-0.5-2.4-1.1-4.9-2.8-6.7
					C-2452.8,332.5-2458.4,332.4-2461.6,335.4z"/>
			</g>
			<g>
				<path class="st1" d="M-2380.9,340.6c0.8-7,8.2-12,15-10.8c3.6,0.4,6.5,2.6,8.8,5.2c0-1.6,0-3.2,0-4.8c1.4,0,2.8,0,4.2,0
					c0,7.9,0,15.8,0,23.8c0,4-1.7,8.1-5,10.4c-6.6,4.2-15.4,2.6-21.9-1.2c0.6-1.2,1.3-2.3,1.9-3.4c4.9,3.3,11.7,5.1,17,1.8
					c3.8-2.4,3.9-7.2,3.8-11.2c-3.4,4.4-9.2,6.9-14.7,5.1C-2378.1,353.9-2382.2,347-2380.9,340.6z M-2368.9,333.5
					c-2.6,0.4-5.1,1.9-6.5,4.2c-2.7,4.3-1.3,10.7,3.3,13.2c5.6,3.4,14.3-0.2,15.1-7C-2355.9,337.5-2362.8,332.3-2368.9,333.5z"/>
			</g>
			<g>
				<path class="st1" d="M-2319.6,332.1c5.1-2.2,11-3.2,16.3-1.2c3.5,1.4,5.7,5.1,5.8,8.8c0.2,6.1,0,12.2,0.1,18.3
					c-1.4,0-2.7,0-4.1,0c0-1.3,0-2.6,0-3.9c-4.2,5-12.2,6.2-17.4,2.2c-4.3-3.2-4-10.7,0.7-13.5c5.1-3,11.4-2.1,16.9-0.9
					c-0.1-2.7-0.7-5.8-3.3-7.2c-4.3-2.3-9.3-0.9-13.5,0.8C-2318.7,334.5-2319.2,333.3-2319.6,332.1z M-2315.1,345.3
					c-3.2,1.6-3.5,6.7-0.5,8.7c3.9,2.6,9.9,1.6,12.8-2.2c1.5-1.9,1.2-4.4,1.3-6.6C-2305.9,344.2-2310.9,343.1-2315.1,345.3z"/>
			</g>
			<g>
				<path class="st1" d="M-2204.9,329.9c8.2-1.9,16.9,4.7,17.2,13.1c1,8.3-6.5,16.3-14.9,15.8c-7.8,0.2-14.7-7.1-14.1-14.9
					C-2216.8,337.2-2211.6,331-2204.9,329.9z M-2206.4,334.3c-5.1,2.2-7.2,8.8-5.3,13.8c1.7,5.3,7.9,8.4,13.1,6.3
					c6.3-2.2,8.5-10.6,5-16.1C-2196,334-2201.9,332.2-2206.4,334.3z"/>
			</g>
			<path class="st1" d="M-2180.1,337.1c2.2-4.2,6.4-7.5,11.4-7.4c0,1.5,0,3,0,4.5c-3.7,0.2-7.5,1.6-9.4,5c-3.3,5.7-1.6,12.6-2,18.9
				c-1.4,0-2.8,0-4.2,0c0-9.3,0-18.6,0-27.8c1.4,0,2.8,0,4.2,0C-2180.1,332.5-2180.1,334.8-2180.1,337.1z"/>
			<path class="st1" d="M-2805.4,358.1c0-9.3,0-18.5,0-27.8c1.4,0,2.8,0,4.2,0c0,9.3,0,18.5,0,27.8
				C-2802.6,358.1-2804,358.1-2805.4,358.1z"/>
			<path class="st1" d="M-2581.8,358.1c0-9.3-0.1-18.6,0.1-27.9c1.4,0,2.7,0,4.1,0.1c0,9.3,0,18.5,0,27.8
				C-2579,358.1-2580.4,358.1-2581.8,358.1z"/>
			<path class="st1" d="M-2389.2,330.3c1.4,0,2.8,0,4.2,0c0,9.3,0,18.5,0,27.8c-1.4,0-2.8,0-4.2,0
				C-2389.2,348.8-2389.2,339.6-2389.2,330.3z"/>
			<path class="st1" d="M-2347.4,330.3c1.4,0,2.8,0,4.3,0c0,9.3,0,18.5,0,27.8c-1.4,0-2.8,0-4.2,0
				C-2347.4,348.8-2347.4,339.6-2347.4,330.3z"/>
		</g>
	</g>
</g>
<g>
	<path class="st0" d="M-1737.7-3.3c8.8-3.1,18.2-4.2,27.4-3.4c2.4,0.2,4.8,0.6,7.1,1.1c4.9,1.1,9.7,2.7,14.2,5
		c2.1,1,4.1,2.1,6.1,3.3c3.9,2.4,7.4,5.3,10.7,8.5c1.2,1.2,2.4,2.5,3.5,3.8c2.9,3.4,5.5,7.1,7.6,11.1c0.9,1.7,1.7,3.4,2.5,5.2
		c2,4.7,3.3,9.7,4.1,14.8c0.3,2.5,0.6,5.1,0.7,7.6c-0.5,0.2-1.6,0.5-2.1,0.7c-6.2,1.7-12.3,4.1-17.6,7.8c-1.1,0.7-2.1,1.4-3.2,2.1
		c1.2-5.6,1.4-11.5,0.2-17.1c-0.5-2.1-1.1-4.2-1.8-6.2c-1.8-4.5-4.4-8.8-7.6-12.4c-1.2-1.3-2.4-2.5-3.7-3.7
		c-3.8-3.4-8.3-5.9-13.2-7.7c-2-0.7-4.1-1.2-6.1-1.7c-10.6-1.9-21.9,0.5-30.7,6.7c-9.9,6.8-16.3,18.2-17.3,30.1
		c-0.2,2.6-0.1,5.1,0.2,7.7c0.2,1.4,0.5,2.9,0.7,4.3c-1-0.7-1.9-1.3-2.8-1.9c-1.8-1.2-3.7-2.4-5.7-3.4c-4.6-2.4-9.5-3.9-14.4-5.4
		c0-0.5,0.1-1.6,0.1-2.1c0.2-2.4,0.4-4.8,0.8-7.2c1.9-10.2,6.3-19.9,12.8-28.1C-1758,7.6-1748.4,0.8-1737.7-3.3z"/>
	<path class="st0" d="M-1831.6,69.6c10.9-5.8,23.3-8.7,35.6-7.8c1.9,0.2,3.8,0.4,5.7,0.5c1.2,7.5,0.3,15.1,0.5,22.7
		c-1.2-0.2-2.3-0.5-3.5-0.7c-11.8-2.4-24.5,1-33.7,8.7c-10.3,8.4-15.9,22-14.5,35.1c0.3,2.9,0.9,5.8,1.7,8.7
		c1.8,4.9,4.3,9.6,7.6,13.6c1.4,1.6,2.9,3.2,4.5,4.6c4.6,3.9,10,6.9,15.8,8.5c2.4,0.7,4.9,1.1,7.4,1.4c6.8,0.6,13.8-0.6,20-3.4
		c2.7-1.1,5.1-3.5,5.3-6.6c0.4-4.8,0-9.7,0.1-14.6c0-2.9,0-5.8,0-8.7c-0.1-7.4,0.2-14.9-0.2-22.3c0.2-0.4,0.7-1.1,0.9-1.4
		c3,4.8,6.4,9.4,9.6,14.1c1.1,1.6,2.2,3.2,3.3,4.8c2.5,3.7,5.2,7.2,7.6,10.9c0.9,1.3,0.5,2.9,0.7,4.4c0,2.6-0.1,5.3,0,8
		c-0.3,7.5,1.6,16.3-4.2,22.3c-9,8.4-21.2,12.7-33.3,14.2c-3,0.3-6,0.4-9.1,0.3c-6.8-0.4-13.5-1.8-19.9-4.2
		c-2.1-0.8-4.1-1.8-6.1-2.8c-4.9-2.6-9.4-5.8-13.6-9.5c-1.6-1.4-3.1-3-4.5-4.6c-3.7-4.3-6.9-9-9.4-14.1c-0.9-1.8-1.7-3.7-2.4-5.6
		c-2.2-6-3.5-12.4-3.9-18.8c-0.1-2.7-0.1-5.3,0.1-8c0.9-11.2,4.8-22,11.2-31.2C-1846.8,80.7-1839.6,74.5-1831.6,69.6z"/>
	<path class="st0" d="M-1643,63.4c0.4-0.4,0.9-0.7,1.3-1.1c4.9-0.4,9.9-0.7,14.8-0.4c14.9,1.3,29.3,7.9,39.8,18.6
		c1.2,1.2,2.4,2.5,3.5,3.8c3.1,3.7,5.7,7.8,7.9,12c0.9,1.9,1.8,3.9,2.6,5.8c2,5.5,3.4,11.3,3.8,17.2c0.2,3,0.2,6,0.1,9.1
		c-1.3,25.7-20.1,49.1-44.8,56.1c-3.2,0.9-6.4,1.5-9.6,2c-6.7,0.9-13.5,0.6-20.1-0.7c-2.3-0.5-4.6-1.1-6.8-1.7
		c-5.1-1.6-10.1-3.9-14.7-6.8c-1.9-1.3-3.8-2.6-5.6-4.1c-4.9-4.8-4.9-11.9-4.7-18.2c0-5.4,0-10.7,0-16.1c7.3-10.5,14.5-21,21.8-31.5
		c-0.1,15.9,0,31.9-0.1,47.9c0.6,1.9,1.6,3.6,3,5.1c5.4,2.9,11.4,4.4,17.5,4.8c2.9,0,5.8-0.2,8.7-0.7c18.7-3.1,33.7-20.8,33.4-39.8
		c0-2.7-0.2-5.4-0.7-8c-1.1-5.4-3.2-10.6-6.3-15.2c-1.1-1.5-2.2-3-3.4-4.4c-10.1-11.4-26.8-16.2-41.5-12c0-4.8,0-9.6,0-14.4
		C-1642.9,68.2-1642.9,65.8-1643,63.4z"/>
	<path class="st0" d="M-1778.9,65.5c1.8,0.8,3.5,1.6,5.3,2.6c1.7,0.9,3.4,1.9,5,3c4.4,3.1,8.4,6.8,11.7,10.9
		c1.2,1.6,2.4,3.2,3.5,4.8c2.9,4.2,5.8,8.4,8.7,12.6c1.1,1.7,2.3,3.3,3.5,5c3.2,4.6,6.4,9.2,9.6,13.8c1.1,1.6,2.2,3.2,3.3,4.7
		c3.2,4.6,6.3,9.1,9.5,13.7c0.9,1.2,1.8,2.4,2.7,3.7c3.2-4.8,6.6-9.4,9.7-14.3c7.1-9.8,13.8-19.8,20.7-29.6
		c4.4-6.1,8.3-12.6,13.3-18.1c5.3-5.5,11.8-9.6,18.7-12.8c0.1,2.4,0.1,4.7,0.1,7.1c0,2.6,0,5.2,0,7.8c-0.3,3.3,0.9,7-1.1,9.9
		c-20.5,29.5-41.1,59-61.5,88.6c-5-7-9.8-14.1-14.8-21.2c-1.2-1.8-2.5-3.5-3.7-5.3c-3.2-4.6-6.4-9.2-9.6-13.8
		c-1.2-1.7-2.3-3.4-3.5-5c-3.2-4.6-6.4-9.2-9.6-13.8c-1.1-1.6-2.2-3.1-3.3-4.7c-3.1-4.5-6.2-9-9.3-13.5c-1.2-1.7-2.3-3.4-3.5-5.1
		c-1.7-2.6-3.7-5-5.2-7.7c-0.5-2.7-0.2-5.5-0.2-8.3c0-2.6,0-5.1,0-7.7C-1778.9,70.3-1778.9,67.9-1778.9,65.5z"/>
	<g>
		<g>
			<path class="st0" d="M-2095,243.9c11.9-12.8,34.2-12.3,46.3,0c-2.3,2.7-4.7,5.4-7,8c-3.4-3.2-7.4-6.1-12.1-7
				c-6.6-1.6-14,0.4-18.7,5.5c-7.3,7.8-7.7,20.9-1.2,29.4c4.5,6,12.6,8.8,19.9,7c4.9-0.9,9-4.1,12.7-7.3c2.2,2.3,4.5,4.6,6.8,6.9
				c-2.7,2.9-5.8,5.4-9.2,7.4c-5.9,3-12.5,3.5-19,3.3c-7.6-1-14.9-4.7-19.8-10.6C-2106.5,274.4-2105.9,255.1-2095,243.9z"/>
			<path class="st0" d="M-1953.6,242.2c12.3-11,32.7-9.9,44.4,1.4c-1.8,3.1-4.5,5.5-6.7,8.2c-3.8-3.2-8-6.3-13-7.1
				c-7-1.5-14.8,1.3-19.2,7c-6.1,7.8-6.1,19.7-0.2,27.7c4.3,6,12.2,8.9,19.4,7.5c5.2-0.8,9.5-4.1,13.3-7.5c2.3,2.3,4.6,4.6,7,6.9
				c-8.9,10.4-24.4,13.5-36.9,8.3c-8-3.3-14.3-10.4-16.9-18.7c-0.5-1.9-1-3.8-1.2-5.8C-1964.9,259.9-1961.5,249-1953.6,242.2z"/>
			<path class="st0" d="M-1519.9,243c3.3-4.8,8.9-7.3,14.5-8c2-0.1,4-0.1,6,0c5.7,0.3,11.3,2.1,16.1,5.3c1,0.7,2.1,1.5,3.1,2.2
				c-2,2.6-3.9,5.3-5.8,8c-0.5-0.3-1.4-0.9-1.9-1.3c-4.7-3.2-10.4-5.4-16.1-4.8c-3,0.4-6.4,1.7-7.6,4.8c-0.7,2.5-0.5,5.8,1.9,7.4
				c4.2,2.9,9.5,3.6,14.4,5c1.6,0.4,3.2,0.9,4.7,1.5c4,1.5,7.7,3.9,10.2,7.4c0.7,1.6,1.3,3.3,1.8,5.1c0.1,4,0,8.2-2.1,11.7
				c-1.9,3.6-5.4,6-9,7.7c-2.3,0.7-4.6,1.2-6.9,1.6c-4.5,0.2-9.1,0-13.5-1.2c-1.9-0.5-3.7-1.2-5.5-2c-3.5-1.6-6.7-3.9-9.7-6.3
				c2.2-2.5,4.4-5,6.5-7.6c2.5,1.9,5.1,3.8,7.9,5.4c2,0.8,4.1,1.5,6.3,2c4.2,0.6,9,0.8,12.6-1.7c3.1-2,3.9-6.9,1.4-9.7
				c-1.6-1.7-3.8-2.5-5.9-3.3c-1.5-0.5-3-0.9-4.5-1.2c-5.9-1.4-11.9-2.9-16.9-6.6c-1.6-1.6-2.8-3.4-3.9-5.3
				C-1523.2,253.7-1523.2,247.6-1519.9,243z"/>
			<path class="st0" d="M-1464.9,235.7c1.2,0,2.3,0,3.5,0c1.7,0,3.4,0,5.1,0c0.5,0,1.5,0,2,0c0,6.6,0,13.2,0,19.8c0,3.3,0,6.6,0,9.9
				c0,8.3-0.1,16.7,0,25c0,1.8,0,3.6,0,5.4c-1.1,0-2.1,0-3.2,0c-2.5,0-4.9,0-7.4,0c0-2.7,0-5.5,0-8.2c0-3,0-6.1,0-9.1
				c0-8.6,0-17.3,0-25.9c0-3.3,0-6.6,0-10C-1464.9,240.3-1464.9,238-1464.9,235.7z"/>
			<path class="st0" d="M-1441.7,235.7c0.6,0,1.7,0,2.3,0c4,0,8,0,12,0c1.3,0,2.7,0,4,0c3.4,0,6.9,0,10.4,0c1.2,0,2.5,0,3.7,0
				c3.3,0,6.7,0,10.1,0c0.8,0,2.5,0,3.3,0c1,0,2.1,0,3.2,0c0,3.3,0,6.5,0,9.8c-2.3,0-4.6,0-6.9,0c-0.8,0-2.5,0-3.3,0
				c-3,0-5.9,0-8.9,0c0.2,16.8,0.1,33.5,0.1,50.3c-2.7,0-5.3,0.1-8,0c-1.1-0.1-2.2-0.3-3.2-0.5c1.3-8.2,0.2-16.6,0.6-24.9
				c0-3.3,0-6.7,0-10c0-5,0-10,0.1-15c-1.8,0-3.6,0-5.4,0c-1.6,0-3.2,0-4.7,0c-3,0-6,0-9,0c0-1.3,0-2.7,0-4
				C-1441.7,239.5-1441.7,237.6-1441.7,235.7z"/>
			<path class="st0" d="M-2036.6,235.7c3.8,0,7.6,0,11.4,0.1c6,9.5,12.2,18.9,18.2,28.4c5.9-9.6,12.2-19,18.2-28.5
				c3.7,0,7.5,0,11.3,0c0.1,11.1,0,22.3,0.1,33.5c0,2,0,4.1,0,6.1c0,3.1,0,6.3,0,9.4c0,3.7,0,7.4,0,11.1c-1.5,0-3.1,0-4.6,0.1
				c-2,0-4,0-6,0c0.1-14.3-0.1-28.6,0.1-42.9c-6.7,9.3-12.8,19-19.2,28.4c-6.6-9.3-12.7-19-19.2-28.4c0.1,14.3-0.1,28.6,0.1,42.8
				c-3.5,0-6.9,0-10.4,0c0-0.5,0-1.4,0-1.8C-2036.6,274.5-2036.6,255.1-2036.6,235.7z"/>
			<path class="st0" d="M-1871.3,235.7c3.5,0,7.1,0,10.6,0c0.1,12.7-0.3,25.4,0.2,38.1c0.6,4.8,3.1,9.6,7.5,11.9
				c5.2,2.3,11.7,2.2,16.6-1c3.8-2.6,5.6-7.3,5.8-11.8c0.3-5.4,0-10.9,0.1-16.4c0-3,0-6,0-8.9c0-4,0-8,0.1-11.9c3.5,0,7,0,10.6,0
				c0,11.7,0,23.5,0,35.2c0,8-2.7,16.4-9.3,21.3c-3,2.1-6.4,3.5-10,4.2c-7.6,1-15.9,0.7-22.4-3.8c-6.7-4.6-9.6-12.9-9.7-20.8
				C-1871.3,259.8-1871.2,247.7-1871.3,235.7z"/>
			<path class="st0" d="M-1804.7,235.7c3.3,0,6.6,0,9.8,0c10.8,13.8,21.6,27.7,32.3,41.6c0.1-13.7-0.1-27.5,0.1-41.2
				c3.1-1,6.9-0.2,10.3-0.4c-0.1,7.3,0,14.6,0,21.8c0,3,0,6,0,8.9c0,8.3,0,16.5,0,24.8c0,1.5,0,3,0,4.6c-1.5,0-3.1,0.1-4.6,0.1
				c-1.6-0.3-3.8,0.5-5-1c-2.8-3.3-5.3-6.9-8-10.2c-1.3-1.7-2.6-3.4-3.9-5c-6.9-8.9-13.8-17.7-20.6-26.6c0.1,14.2,0,28.5,0.1,42.7
				c-3.5,0-7,0-10.4,0C-1804.6,275.7-1804.6,255.7-1804.7,235.7z"/>
			<path class="st0" d="M-1735.3,235.6c3.6,0.1,7.2,0,10.8,0c0,0.7,0,2,0,2.7c0,8.3,0,16.6,0,24.9c0,3,0,6,0,9c0,7.9,0,15.7,0,23.6
				c-3.5,0.1-7.1,0.1-10.6,0C-1735.3,275.7-1734.9,255.6-1735.3,235.6z"/>
			<path class="st0" d="M-1713.3,235.6c3.9,0,7.8,0,11.7-0.1c0.4,1,0.9,1.9,1.3,2.9c1,2.4,1.9,4.9,2.8,7.3
				c2.2,5.5,4.3,10.9,6.5,16.4c0.8,2.1,1.7,4.2,2.5,6.4c1.8,4.3,3.1,8.8,5.3,12.9c3.5-9.5,7.3-18.8,10.9-28.2
				c2.3-5.8,4.6-11.6,6.7-17.5l0.2-0.2c3.9,0.1,7.8,0.1,11.7,0.1c-4.8,11.2-9.3,22.5-14,33.8c-2.6,6.2-5.1,12.3-7.6,18.6
				c-1.2,2.7-2.3,5.4-3.5,8.1c-1.5,0-3.1,0.1-4.6,0.1c-1.6,0-3.1,0-4.7-0.1c-0.2-0.4-0.6-1.2-0.8-1.6c-2.4-5.7-4.7-11.5-7.1-17.2
				c-0.9-2.1-1.7-4.1-2.6-6.2c-2.4-5.9-4.9-11.7-7.3-17.6c-0.9-2.2-1.8-4.4-2.7-6.7C-1710.1,243.1-1711.6,239.4-1713.3,235.6z"/>
			<path class="st0" d="M-1642.5,244.5c0-3,0-5.9,0-8.9c14.9,0,29.8,0,44.7,0c-0.1,3.2-0.1,6.3-0.1,9.5c-11.3,0-22.7,0-34,0
				c0,5.2,0,10.4,0,15.6c10.1,0.1,20.1-0.1,30.2,0c0,3.2,0,6.3,0,9.5c-2.9,0-5.8,0-8.7,0c-2.4,0-4.9,0-7.3,0c-4.7,0-9.5,0-14.2,0
				c0,5.4,0.1,10.7,0,16.1c0.4,0,1.2,0,1.6,0c2.4,0,4.8,0.1,7.1,0.1c8.6,0,17.2,0,25.9,0c0,3.1-0.1,6.2,0,9.4
				c-11.4,0.1-22.9,0-34.4,0c-2.7,0-5.4,0-8.1,0c-0.7,0-2,0-2.7-0.1c0.1-14.1,0-28.2,0-42.3
				C-1642.5,250.5-1642.5,247.5-1642.5,244.5z"/>
			<g>
				<path class="st0" d="M-1583.9,235.7c9-0.1,18,0,26.9-0.1c6.4,0,13.3,1.7,17.7,6.7c4.6,5.2,5.3,13,3.2,19.5
					c-2,5.9-7.4,9.6-13.1,11.5c3.1,4.4,6.3,8.7,9.4,13.1c1.1,1.6,2.3,3.2,3.4,4.7c1.1,1.5,2.2,3.1,3.3,4.7c-2.2,0-4.5,0-6.7,0
					c-2,0-4-0.1-6-0.1c-4.8-6.9-9.7-13.7-14.5-20.7c-4.4-0.1-8.8-0.1-13.3,0c0.1,6.9,0,13.8,0.1,20.8c-3.5,0-7.1,0-10.6,0
					c0-19.3,0-38.7,0-58C-1584.1,237.3-1584,236.2-1583.9,235.7z M-1573.5,245.3c0,6.7,0.1,13.5,0,20.2c4.9,0,9.7,0,14.6,0
					c3.4,0,7.1-0.5,9.8-2.8c4.4-3.5,4.6-11.1,0.2-14.8c-2.5-2.1-5.9-2.7-9.1-2.7C-1563.2,245.3-1568.4,245.3-1573.5,245.3z"/>
			</g>
			<path class="st0" d="M-1387,235.6c4.2,0,8.5,0,12.7,0c1.7,2.7,3.4,5.5,5.2,8.2c0.8,1.4,1.7,2.7,2.6,4.1c3,4.7,5.9,9.4,9,14
				c5.7-8.7,11.3-17.5,16.8-26.3c4.1-0.1,8.3,0,12.5,0c-0.4,0.6-1.3,1.9-1.7,2.5c-1.5,2.1-2.9,4.3-4.3,6.5
				c-3.5,5.2-6.9,10.4-10.4,15.7c-1.4,2.1-2.8,4.3-4.3,6.4c-1.1,1.7-2.4,3.4-3.3,5.3c-0.5,3.7-0.1,7.5-0.2,11.2c0,2,0,4,0,6
				c0,2.2,0,4.4,0,6.6c-3.6,0-7.2,0-10.8,0c0-2.6,0-5.3,0.1-7.9c0.1-2.2,0.1-4.4,0.1-6.6c-0.3-3.7,1-7.9-1.4-11.1
				C-1372,258.7-1379.4,247.1-1387,235.6z"/>
		</g>
		<g>
			<path class="st0" d="M-1699.1,318.9c1.4-0.1,2.8-0.1,4.2-0.2c0.1,5.4,0,10.7,0,16.1c3.2-5,10.3-6.7,15.4-3.6
				c3.3,1.9,4.8,5.8,4.8,9.5c0.1,5.8,0.1,11.7-0.1,17.5c-1.4,0-2.7,0-4.1,0c-0.2-6.1,0.3-12.3-0.3-18.5c-0.4-3.9-4.3-6.6-8.1-6.1
				c-4.1,0.2-7.5,3.8-7.5,7.9c-0.2,5.6,0,11.1-0.1,16.7c-1.4,0-2.8,0-4.2,0C-1699.1,345-1699.1,332-1699.1,318.9z"/>
			<path class="st0" d="M-1494.8,318.9c1.4,0,2.8,0,4.2,0c0,13.1,0,26.1,0,39.2c-1.4,0-2.8,0-4.2,0
				C-1494.8,345-1494.8,332-1494.8,318.9z"/>
			<path class="st0" d="M-1368.6,318.9c1.4-0.1,2.8-0.1,4.2-0.2c0,13.1,0,26.3,0,39.4c-1.4,0-2.8,0-4.2,0
				C-1368.5,345-1368.5,332-1368.6,318.9z"/>
			<g>
				<path class="st0" d="M-1336.4,318.8c1.4,0,2.8,0,4.2,0.1c0,13.1,0,26.2,0,39.3c-1.4,0-2.8,0-4.2,0c0-1.8,0-3.5,0-5.3
					c-2.7,3.6-6.9,6.5-11.6,5.9c-7.1-0.3-12.6-7-12.4-13.9c-0.5-6.7,4.1-13.7,11-14.9c5-1.1,10.1,1.4,13,5.5
					C-1336.5,329.8-1336.5,324.3-1336.4,318.8z M-1350.2,334.2c-8.2,3.5-7.7,17.5,0.9,20.3c6.6,2.4,13.6-3.9,13-10.6
					C-1336,337-1343.8,331.2-1350.2,334.2z"/>
			</g>
			<path class="st0" d="M-2008.1,319.6c1.6,0,3.2,0,4.8,0c0,1.6,0,3.1,0,4.7c-1.6,0-3.2,0-4.8,0
				C-2008.1,322.7-2008.1,321.1-2008.1,319.6z"/>
			<path class="st0" d="M-1784.6,319.6c1.6,0,3.3,0,4.9,0c0,1.6,0,3.1,0,4.7c-1.6,0-3.2,0-4.8,0.1
				C-1784.5,322.7-1784.6,321.1-1784.6,319.6z"/>
			<path class="st0" d="M-1591.8,319.6c1.6,0,3.2,0,4.8,0c0,1.5,0,3.1,0,4.7c-1.6,0-3.2,0-4.8,0
				C-1591.9,322.7-1591.9,321.1-1591.8,319.6z"/>
			<path class="st0" d="M-1550,319.6c1.6,0,3.2,0,4.8,0c0,1.6,0,3.1,0,4.7c-1.6,0-3.2,0-4.8,0C-1550,322.7-1550,321.1-1550,319.6z"
				/>
			<g>
				<path class="st0" d="M-2103.7,358.1c5.8-12.7,11.4-25.4,17.2-38c1.3,0,2.6,0,4,0.1c5.8,12.6,11.3,25.3,17.2,37.9
					c-1.6,0.1-3.2,0.1-4.7,0.1c-1.4-3.3-2.9-6.6-4.4-9.9c-6.8,0-13.7-0.1-20.5,0c-1.4,3.3-2.9,6.6-4.4,9.9
					C-2100.8,358.1-2102.3,358.1-2103.7,358.1z M-2084.6,325.4c-2.8,6.3-5.6,12.6-8.5,18.9c5.7,0,11.3,0,17,0
					C-2079,338-2081.6,331.6-2084.6,325.4z"/>
			</g>
			<path class="st0" d="M-1878.8,320.4c1.4,0,2.9,0,4.4,0c0,12.6,0,25.1,0,37.7c-1.5,0-2.9,0-4.4,0
				C-1878.8,345.5-1878.8,333-1878.8,320.4z"/>
			<g>
				<path class="st0" d="M-1629.3,320.4c7.6,0.4,15.8-1.3,22.9,2.2c6.2,2.9,10.2,9.5,10.2,16.3c0.3,6.9-3.6,13.8-9.8,16.9
					c-7.2,3.8-15.6,1.9-23.3,2.4C-1629.3,345.5-1629.3,333-1629.3,320.4z M-1625,324.5c0,9.9,0,19.8,0,29.7c6.3-0.1,13.3,1.1,18.7-3
					c7.6-5.4,7.6-18.2,0-23.7C-1611.7,323.4-1618.8,324.6-1625,324.5z"/>
			</g>
			<path class="st0" d="M-1475.2,320.4c1.6,0,3.2,0.1,4.8,0.2c3.5,10.4,7,20.8,10.7,31.1c3.4-10.5,6.8-20.9,10.2-31.4
				c1.2,0,2.4,0,3.6,0c3.4,10.5,6.9,20.9,10.3,31.4c3.6-10,6.9-20.2,10.4-30.2c0.7-2,3.4-0.7,4.9-1.1c-4.5,12.7-9,25.5-13.5,38.1
				c-1.2,0-2.4,0-3.6-0.1c-3.4-10.1-6.8-20.3-10.3-30.3c-3.6,10.1-6.9,20.3-10.4,30.4c-1.2,0-2.4,0-3.6,0
				C-1466.2,345.7-1470.7,333.1-1475.2,320.4z"/>
			<path class="st0" d="M-1938.9,321.9c1.4,0,2.8,0,4.2,0c0,2.8,0,5.6,0,8.4c3,0,5.9,0,8.9,0c0,1.2,0,2.5,0,3.7c-2.9,0-5.9,0-8.8,0
				c0.1,5.5-0.1,11.1,0,16.6c0,1.6,0.8,3.3,2.4,3.8c2.1,0.7,4.3,0,6.4-0.4c-0.1,1.2-0.2,2.5-0.3,3.8c-3.2,0.8-7,1.5-9.9-0.5
				c-2.1-1.5-2.8-4.2-2.8-6.6c0-5.6,0-11.1,0-16.7c-1.3,0-2.5,0-3.8,0c0-1.2,0-2.5,0-3.7c1.3,0,2.6,0,3.8,0
				C-1938.9,327.5-1938.9,324.7-1938.9,321.9z"/>
			<path class="st0" d="M-1715.3,321.9c1.4,0,2.8,0,4.2,0c0,2.8,0,5.6,0,8.4c3,0,5.9,0,8.9,0c0,1.2,0,2.5,0,3.7c-3,0-5.9,0-8.9,0
				c0.1,5.5-0.1,11.1,0.1,16.7c0,1.6,0.8,3.3,2.4,3.8c2.1,0.7,4.3,0.1,6.4-0.4c-0.1,1.2-0.2,2.5-0.2,3.8c-3.2,0.8-6.9,1.5-9.8-0.5
				c-2.2-1.4-3-4.2-2.9-6.7c0-5.6,0-11.1,0-16.7c-1.3,0-2.6,0-3.9,0c0-1.2,0-2.5,0-3.7c1.3,0,2.6,0,3.9,0
				C-1715.3,327.5-1715.3,324.7-1715.3,321.9z"/>
			<path class="st0" d="M-1538.6,321.9c1.4,0,2.8,0,4.2,0c0,2.8,0,5.6,0,8.4c3,0,6,0,8.9,0c-0.1,1.2-0.1,2.5-0.2,3.7
				c-2.9,0-5.8,0-8.7,0c0,5.3-0.1,10.6,0,15.9c0,1.6,0.3,3.5,1.9,4.3c2.2,1.1,4.6,0.4,6.9-0.1c0,1.2,0,2.3,0,3.5
				c-3.2,1.2-7,1.7-10-0.2c-2.2-1.4-3-4.2-2.9-6.6c0-5.6,0-11.2,0-16.7c-1.3,0-2.6,0-3.9,0c0-1.2,0-2.5,0-3.7c1.3,0,2.6,0,3.9,0
				C-1538.6,327.5-1538.6,324.7-1538.6,321.9z"/>
			<path class="st0" d="M-2059.6,331.1c5-2.5,10.8-0.9,15.5,1.6c-0.6,1.1-1.1,2.3-1.7,3.4c-3.5-1.8-7.7-3.7-11.5-2
				c-2.2,0.9-3.2,4.2-1,5.7c4,2.8,9.7,2.5,13.2,6.1c3.1,3.4,1.7,9.4-2.4,11.5c-5.7,3-12.6,0.9-17.5-2.6c0.7-1,1.4-2.1,2.1-3.1
				c3.7,2.4,8.3,4.6,12.7,3c2.5-0.8,3.7-4.4,1.7-6.3c-3.9-3-9.6-2.5-13.3-6C-2065.2,339.1-2063.7,333-2059.6,331.1z"/>
			<g>
				<path class="st0" d="M-2035.7,335.6c2-2.7,4.7-5.2,8.1-5.7c6.1-1.3,12.8,2.6,14.8,8.5c2,5.5,1.1,12.2-3,16.4
					c-3.8,4-10.2,5.1-15,2.6c-2-1-3.5-2.7-4.9-4.3c0.1,4.6,0,9.1,0,13.7c-1.4,0-2.8,0-4.2,0c0-12.2,0-24.3,0-36.5c1.4,0,2.8,0,4.2,0
					C-2035.7,332-2035.7,333.8-2035.7,335.6z M-2029.6,334.3c-6.1,2.5-8.1,11-4.3,16.3c2.7,4.1,8.6,5.7,12.9,3.2
					c5.4-3.1,6.4-11,3.1-16C-2020.3,333.9-2025.6,332.4-2029.6,334.3z"/>
			</g>
			<path class="st0" d="M-1993.9,337.2c2.1-4.3,6.4-7.7,11.4-7.5c0,1.5,0,3,0,4.5c-4.9,0-9.6,3.2-10.7,8.1
				c-1.2,5.2-0.4,10.5-0.6,15.8c-1.4,0-2.9,0-4.3,0c0-9.3,0-18.5,0-27.8c1.4,0,2.9,0,4.3,0C-1993.9,332.6-1993.9,334.9-1993.9,337.2
				z"/>
			<g>
				<path class="st0" d="M-1977.3,332.9c4.9-4.6,13.5-4.4,17.9,0.7c3,3.3,3.7,7.8,3.8,12.1c-7.5,0.1-14.9-0.1-22.4,0.1
					c0.7,3.6,2.6,7.3,6.3,8.6c4.4,1.8,9.2-0.1,12.5-3.2c0.8,0.8,1.7,1.6,2.5,2.4c-4.7,5.6-13.6,7-19.6,2.7
					C-1983.7,351.2-1984,338.9-1977.3,332.9z M-1974.2,335.2c-2.3,1.8-3.1,4.7-3.8,7.4c6,0,12.1,0,18.1,0c-0.6-2.3-1-4.8-2.7-6.6
					C-1965.3,332.6-1970.9,332.3-1974.2,335.2z"/>
			</g>
			<g>
				<path class="st0" d="M-1914,330.2c5.8-1.8,12.7,0.5,16.1,5.6c4.3,6.1,3,15.4-3,19.9c-6.6,5.4-17.7,3.4-21.7-4.3
					C-1927.2,343.8-1922.8,332.5-1914,330.2z M-1914.1,334.3c-4,1.8-6.3,6.3-6,10.6c0,6.2,6.3,11.6,12.5,10c6.4-1.2,9.6-9,7.2-14.7
					C-1902.3,334.7-1908.9,331.8-1914.1,334.3z"/>
			</g>
			<path class="st0" d="M-1864,334.8c3.2-5,10.3-6.7,15.4-3.7c3.3,1.9,4.8,5.8,4.8,9.4c0.1,5.8,0,11.7,0,17.5c-1.4,0-2.8,0-4.2,0
				c-0.1-5.8,0.2-11.7-0.1-17.5c-0.1-3.3-2.5-6.5-5.9-6.9c-4.5-1-9.5,2.2-9.9,6.9c-0.3,5.8,0,11.7-0.1,17.5c-1.4,0-2.8,0-4.2,0
				c-0.2-9.3,0.1-18.5-0.2-27.8c1.5,0,2.9,0,4.4,0C-1864,331.8-1864,333.3-1864,334.8z"/>
			<path class="st0" d="M-1835.9,331c5-2.4,10.8-0.8,15.4,1.7c-0.6,1.1-1.2,2.2-1.8,3.4c-3.5-1.8-7.7-3.7-11.5-2
				c-2.2,0.9-3.2,4.3-1,5.7c4.1,2.8,9.7,2.5,13.2,6.1c3.2,3.6,1.4,9.8-2.9,11.7c-5.6,2.5-12.2,0.5-17-2.8c0.7-1,1.4-2.1,2.1-3.1
				c2.9,1.8,6.2,3.6,9.8,3.5c2.2,0,4.7-0.8,5.5-3.1c0.7-1.7-0.1-3.6-1.7-4.4c-3.9-2.2-8.9-2.2-12.4-5.2
				C-1841.7,339.2-1840.1,332.9-1835.9,331z"/>
			<g>
				<path class="st0" d="M-1806.8,330.9c4.7-2.3,10.8-1.1,14.5,2.6c6.9,6.8,5.1,20.6-4.2,24.3c-5.5,2.5-12.1,0.2-15.5-4.6
					c0.1,4.5,0,9.1,0,13.6c-1.4,0-2.9,0-4.3,0c0-12.2,0-24.4,0-36.5c1.4,0,2.9,0,4.3,0c0,1.7,0,3.5-0.1,5.2
					C-1810.5,333.8-1808.9,331.9-1806.8,330.9z M-1806,334.2c-5.7,2.4-7.9,10-5,15.3c2.3,4.7,8.4,6.9,13.1,4.5
					c5.8-2.8,6.9-11,3.6-16.2C-1796.6,334-1801.9,332.4-1806,334.2z"/>
			</g>
			<path class="st0" d="M-1770.1,337c2-4.3,6.3-7.4,11.2-7.4c0,1.5,0,3,0,4.5c-4.1,0.1-8.3,2.1-10,6.1c-2.5,5.6-1,11.9-1.4,17.9
				c-1.4,0-2.8,0-4.2,0c0-9.3,0-18.5,0-27.8c1.4,0,2.8,0,4.2,0C-1770.3,332.5-1770.2,334.8-1770.1,337z"/>
			<g>
				<path class="st0" d="M-1753.1,332.5c5-4.1,13.2-3.7,17.5,1.3c3,3.3,3.7,7.8,3.7,12.1c-7.4,0-14.9,0-22.3,0
					c0.6,3.2,2.1,6.6,5.2,8.1c4.5,2.5,10.1,0.8,13.5-2.7c0.7,0.9,2.4,1.3,2.2,2.6c-4.9,6-14.9,6.6-20.6,1.3
					C-1760.3,349.3-1759.9,337.9-1753.1,332.5z M-1750.5,335.2c-2.3,1.8-3.2,4.6-3.7,7.4c6,0,12,0,18,0c-0.6-2.5-1.1-5.1-3-6.9
					C-1742.1,332.6-1747.4,332.5-1750.5,335.2z"/>
			</g>
			<g>
				<path class="st0" d="M-1666.2,332.3c5.1-4,13.3-3.5,17.5,1.6c2.8,3.3,3.5,7.7,3.6,11.9c-7.5,0-14.9,0-22.4,0
					c0.6,3.5,2.5,7.1,5.9,8.5c4.4,2,9.5,0.2,12.8-3.1c0.9,0.8,1.7,1.6,2.6,2.4c-4.8,5.6-13.8,7-19.8,2.5
					C-1673.6,350.7-1673.5,338-1666.2,332.3z M-1664,335.4c-2.1,1.8-2.9,4.6-3.6,7.2c6,0,12.1,0,18.1,0c-0.5-2.4-1.1-4.9-2.8-6.7
					C-1655.2,332.5-1660.8,332.4-1664,335.4z"/>
			</g>
			<g>
				<path class="st0" d="M-1583.3,340.6c0.8-7,8.2-12,15-10.8c3.6,0.4,6.5,2.6,8.8,5.2c0-1.6,0-3.2,0-4.8c1.4,0,2.8,0,4.2,0
					c0,7.9,0,15.8,0,23.8c0,4-1.7,8.1-5,10.4c-6.6,4.2-15.4,2.6-21.9-1.2c0.6-1.2,1.3-2.3,1.9-3.4c4.9,3.3,11.7,5.1,17,1.8
					c3.8-2.4,3.9-7.2,3.8-11.2c-3.4,4.4-9.2,6.9-14.7,5.1C-1580.5,353.9-1584.6,347-1583.3,340.6z M-1571.3,333.5
					c-2.6,0.4-5.1,1.9-6.5,4.2c-2.7,4.3-1.3,10.7,3.3,13.2c5.6,3.4,14.3-0.2,15.1-7C-1558.3,337.5-1565.2,332.3-1571.3,333.5z"/>
			</g>
			<g>
				<path class="st0" d="M-1522,332.1c5.1-2.2,11-3.2,16.3-1.2c3.5,1.4,5.7,5.1,5.8,8.8c0.2,6.1,0,12.2,0.1,18.3c-1.4,0-2.7,0-4.1,0
					c0-1.3,0-2.6,0-3.9c-4.2,5-12.2,6.2-17.4,2.2c-4.3-3.2-4-10.7,0.7-13.5c5.1-3,11.4-2.1,16.9-0.9c-0.1-2.7-0.7-5.8-3.3-7.2
					c-4.3-2.3-9.3-0.9-13.5,0.8C-1521.1,334.5-1521.6,333.3-1522,332.1z M-1517.5,345.3c-3.2,1.6-3.5,6.7-0.5,8.7
					c3.9,2.6,9.9,1.6,12.8-2.2c1.5-1.9,1.2-4.4,1.3-6.6C-1508.3,344.2-1513.3,343.1-1517.5,345.3z"/>
			</g>
			<g>
				<path class="st0" d="M-1407.3,329.9c8.2-1.9,16.9,4.7,17.2,13.1c1,8.3-6.5,16.3-14.9,15.8c-7.8,0.2-14.7-7.1-14.1-14.9
					C-1419.2,337.2-1414,331-1407.3,329.9z M-1408.8,334.3c-5.1,2.2-7.2,8.8-5.3,13.8c1.7,5.3,7.9,8.4,13.1,6.3
					c6.3-2.2,8.5-10.6,5-16.1C-1398.4,334-1404.3,332.2-1408.8,334.3z"/>
			</g>
			<path class="st0" d="M-1382.5,337.1c2.2-4.2,6.4-7.5,11.4-7.4c0,1.5,0,3,0,4.5c-3.7,0.2-7.5,1.6-9.4,5c-3.3,5.7-1.6,12.6-2,18.9
				c-1.4,0-2.8,0-4.2,0c0-9.3,0-18.6,0-27.8c1.4,0,2.8,0,4.2,0C-1382.5,332.5-1382.5,334.8-1382.5,337.1z"/>
			<path class="st0" d="M-2007.8,358.1c0-9.3,0-18.5,0-27.8c1.4,0,2.8,0,4.2,0c0,9.3,0,18.5,0,27.8
				C-2005,358.1-2006.4,358.1-2007.8,358.1z"/>
			<path class="st0" d="M-1784.2,358.1c0-9.3-0.1-18.6,0.1-27.9c1.4,0,2.7,0,4.1,0.1c0,9.3,0,18.5,0,27.8
				C-1781.4,358.1-1782.8,358.1-1784.2,358.1z"/>
			<path class="st0" d="M-1591.6,330.3c1.4,0,2.8,0,4.2,0c0,9.3,0,18.5,0,27.8c-1.4,0-2.8,0-4.2,0
				C-1591.6,348.8-1591.6,339.6-1591.6,330.3z"/>
			<path class="st0" d="M-1549.8,330.3c1.4,0,2.8,0,4.3,0c0,9.3,0,18.5,0,27.8c-1.4,0-2.8,0-4.2,0
				C-1549.8,348.8-1549.8,339.6-1549.8,330.3z"/>
		</g>
	</g>
</g>
<rect x="-653.6" y="122.1" class="st0" width="633.6" height="115.5"/>
<g>
	<g>
		<path class="st1" d="M-465.6,165c6.9-7.4,19.8-7.1,26.8,0c-1.4,1.5-2.7,3.1-4.1,4.6c-2-1.9-4.3-3.5-7-4.1
			c-3.8-0.9-8.1,0.3-10.8,3.2c-4.3,4.5-4.5,12.1-0.7,17c2.6,3.5,7.3,5.1,11.5,4.1c2.9-0.5,5.2-2.4,7.3-4.2c1.3,1.3,2.6,2.7,3.9,4
			c-1.6,1.7-3.3,3.1-5.3,4.3c-3.4,1.7-7.2,2-11,1.9c-4.4-0.6-8.6-2.7-11.4-6.1C-472.2,182.7-471.9,171.5-465.6,165z"/>
		<path class="st1" d="M-383.8,164.1c7.1-6.4,18.9-5.8,25.7,0.8c-1,1.8-2.6,3.2-3.9,4.8c-2.2-1.9-4.6-3.6-7.5-4.1
			c-4.1-0.9-8.6,0.7-11.1,4.1c-3.5,4.5-3.5,11.4-0.1,16c2.5,3.5,7.1,5.2,11.2,4.3c3-0.5,5.5-2.4,7.7-4.4c1.3,1.3,2.7,2.7,4,4
			c-5.1,6-14.1,7.8-21.3,4.8c-4.7-1.9-8.3-6-9.8-10.8c-0.3-1.1-0.6-2.2-0.7-3.3C-390.3,174.3-388.4,168-383.8,164.1z"/>
		<path class="st1" d="M-132.9,164.5c1.9-2.8,5.1-4.2,8.4-4.6c1.2-0.1,2.3-0.1,3.5,0c3.3,0.2,6.5,1.2,9.3,3c0.6,0.4,1.2,0.9,1.8,1.3
			c-1.1,1.5-2.3,3.1-3.3,4.7c-0.3-0.2-0.8-0.5-1.1-0.7c-2.7-1.8-6-3.1-9.3-2.8c-1.8,0.2-3.7,1-4.4,2.8c-0.4,1.5-0.3,3.4,1.1,4.3
			c2.5,1.7,5.5,2.1,8.3,2.9c0.9,0.3,1.8,0.5,2.7,0.9c2.3,0.9,4.5,2.2,5.9,4.3c0.4,1,0.7,1.9,1.1,2.9c0.1,2.3,0,4.7-1.2,6.8
			c-1.1,2.1-3.1,3.5-5.2,4.4c-1.3,0.4-2.6,0.7-4,0.9c-2.6,0.1-5.3,0-7.8-0.7c-1.1-0.3-2.1-0.7-3.2-1.1c-2-1-3.9-2.3-5.6-3.7
			c1.3-1.5,2.5-2.9,3.8-4.4c1.5,1.1,3,2.2,4.6,3.1c1.2,0.5,2.4,0.9,3.6,1.2c2.4,0.4,5.2,0.5,7.3-1c1.8-1.2,2.2-4,0.8-5.6
			c-0.9-1-2.2-1.4-3.4-1.9c-0.9-0.3-1.7-0.5-2.6-0.7c-3.4-0.8-6.9-1.7-9.8-3.8c-0.9-0.9-1.6-1.9-2.2-3.1
			C-134.9,170.7-134.8,167.2-132.9,164.5z"/>
		<path class="st1" d="M-101.1,160.3c0.7,0,1.4,0,2,0c1,0,1.9,0,2.9,0c0.3,0,0.9,0,1.2,0c0,3.8,0,7.6,0,11.4c0,1.9,0,3.8,0,5.8
			c0,4.8,0,9.6,0,14.5c0,1,0,2.1,0,3.1c-0.6,0-1.2,0-1.8,0c-1.4,0-2.9,0-4.3,0c0-1.6,0-3.2,0-4.7c0-1.8,0-3.5,0-5.3c0-5,0-10,0-15
			c0-1.9,0-3.8,0-5.8C-101.1,163-101.1,161.6-101.1,160.3z"/>
		<path class="st1" d="M-87.7,160.3c0.3,0,1,0,1.3,0c2.3,0,4.6,0,6.9,0c0.8,0,1.5,0,2.3,0c2,0,4,0,6,0c0.7,0,1.4,0,2.2,0
			c1.9,0,3.9,0,5.8,0c0.5,0,1.4,0,1.9,0c0.6,0,1.2,0,1.9,0c0,1.9,0,3.8,0,5.7c-1.3,0-2.7,0-4,0c-0.5,0-1.5,0-1.9,0
			c-1.7,0-3.4,0-5.2,0c0.1,9.7,0,19.4,0,29.1c-1.5,0-3.1,0.1-4.6,0c-0.6-0.1-1.3-0.2-1.9-0.3c0.7-4.7,0.1-9.6,0.3-14.4
			c0-1.9,0-3.9,0-5.8c0-2.9,0-5.8,0-8.7c-1.1,0-2.1,0-3.1,0c-0.9,0-1.8,0-2.7,0c-1.7,0-3.5,0-5.2,0c0-0.8,0-1.6,0-2.3
			C-87.7,162.5-87.7,161.4-87.7,160.3z"/>
		<path class="st1" d="M-431.8,160.3c2.2,0,4.4,0,6.6,0c3.5,5.5,7.1,10.9,10.5,16.4c3.4-5.5,7.1-11,10.5-16.5c2.2,0,4.3,0,6.5,0
			c0.1,6.4,0,12.9,0,19.4c0,1.2,0,2.4,0,3.5c0,1.8,0,3.6,0,5.5c0,2.1,0,4.3,0,6.4c-0.9,0-1.8,0-2.7,0c-1.2,0-2.3,0-3.5,0
			c0.1-8.3-0.1-16.5,0.1-24.8c-3.9,5.4-7.4,11-11.1,16.4c-3.8-5.4-7.4-11-11.1-16.4c0.1,8.3,0,16.5,0,24.8c-2,0-4,0-6,0
			c0-0.3,0-0.8,0-1.1C-431.8,182.8-431.8,171.5-431.8,160.3z"/>
		<path class="st1" d="M-336.2,160.3c2,0,4.1,0,6.1,0c0.1,7.4-0.2,14.7,0.1,22.1c0.3,2.8,1.8,5.5,4.3,6.9c3,1.3,6.8,1.3,9.6-0.6
			c2.2-1.5,3.2-4.2,3.4-6.8c0.2-3.2,0-6.3,0.1-9.5c0-1.7,0-3.4,0-5.2c0-2.3,0-4.6,0-6.9c2,0,4.1,0,6.1,0c0,6.8,0,13.6,0,20.4
			c0,4.6-1.6,9.5-5.4,12.3c-1.7,1.2-3.7,2-5.8,2.5c-4.4,0.6-9.2,0.4-13-2.2c-3.9-2.7-5.6-7.5-5.6-12
			C-336.2,174.3-336.1,167.3-336.2,160.3z"/>
		<path class="st1" d="M-297.7,160.3c1.9,0,3.8,0,5.7,0c6.2,8,12.5,16,18.7,24.1c0-7.9-0.1-15.9,0.1-23.8c1.8-0.6,4-0.1,6-0.2
			c-0.1,4.2,0,8.4,0,12.6c0,1.7,0,3.4,0,5.2c0,4.8,0,9.6,0,14.3c0,0.9,0,1.8,0,2.6c-0.9,0-1.8,0-2.7,0.1c-1-0.2-2.2,0.3-2.9-0.6
			c-1.6-1.9-3-4-4.6-5.9c-0.8-1-1.5-1.9-2.3-2.9c-4-5.1-8-10.2-11.9-15.4c0.1,8.2,0,16.5,0,24.7c-2,0-4,0-6,0
			C-297.6,183.5-297.6,171.9-297.7,160.3z"/>
		<path class="st1" d="M-257.5,160.2c2.1,0,4.2,0,6.2,0c0,0.4,0,1.2,0,1.5c0,4.8,0,9.6,0,14.4c0,1.7,0,3.5,0,5.2c0,4.5,0,9.1,0,13.6
			c-2,0-4.1,0-6.1,0C-257.5,183.5-257.3,171.9-257.5,160.2z"/>
		<path class="st1" d="M-244.8,160.3c2.3,0,4.5,0,6.8,0c0.2,0.6,0.5,1.1,0.8,1.7c0.6,1.4,1.1,2.8,1.6,4.3c1.3,3.2,2.5,6.3,3.8,9.5
			c0.5,1.2,1,2.5,1.5,3.7c1,2.5,1.8,5.1,3.1,7.5c2-5.5,4.2-10.9,6.3-16.3c1.3-3.4,2.7-6.7,3.9-10.1l0.1-0.1c2.2,0.1,4.5,0.1,6.7,0.1
			c-2.8,6.5-5.4,13-8.1,19.6c-1.5,3.6-3,7.1-4.4,10.7c-0.7,1.6-1.3,3.1-2,4.7c-0.9,0-1.8,0-2.7,0.1c-0.9,0-1.8,0-2.7-0.1
			c-0.1-0.2-0.3-0.7-0.5-1c-1.4-3.3-2.7-6.6-4.1-9.9c-0.5-1.2-1-2.4-1.5-3.6c-1.4-3.4-2.8-6.8-4.2-10.2c-0.5-1.3-1.1-2.6-1.6-3.9
			C-242.9,164.6-243.8,162.4-244.8,160.3z"/>
		<path class="st1" d="M-203.9,165.4c0-1.7,0-3.4,0-5.1c8.6,0,17.2,0,25.9,0c-0.1,1.8-0.1,3.7-0.1,5.5c-6.6,0-13.1,0-19.7,0
			c0,3,0,6,0,9c5.8,0,11.7-0.1,17.5,0c0,1.8,0,3.7,0,5.5c-1.7,0-3.4,0-5,0c-1.4,0-2.8,0-4.2,0c-2.7,0-5.5,0-8.2,0c0,3.1,0,6.2,0,9.3
			c0.2,0,0.7,0,0.9,0c1.4,0,2.8,0,4.1,0c5,0,10,0,15,0c0,1.8,0,3.6,0,5.4c-6.6,0-13.3,0-19.9,0c-1.6,0-3.1,0-4.7,0
			c-0.4,0-1.2,0-1.6,0c0.1-8.2,0-16.3,0-24.5C-203.8,168.8-203.9,167.1-203.9,165.4z"/>
		<g>
			<path class="st1" d="M-169.9,160.3c5.2-0.1,10.4,0,15.6,0c3.7,0,7.7,1,10.2,3.9c2.7,3,3,7.5,1.9,11.3c-1.1,3.4-4.3,5.6-7.6,6.6
				c1.8,2.5,3.6,5.1,5.4,7.6c0.7,0.9,1.3,1.8,2,2.7c0.6,0.9,1.3,1.8,1.9,2.7c-1.3,0-2.6,0-3.9,0c-1.2,0-2.3,0-3.5-0.1
				c-2.8-4-5.6-8-8.4-11.9c-2.6-0.1-5.1,0-7.7,0c0,4,0,8,0,12c-2.1,0-4.1,0-6.2,0c0-11.2,0-22.4,0-33.6
				C-170,161.2-170,160.6-169.9,160.3z M-163.9,165.9c0,3.9,0,7.8,0,11.7c2.8,0,5.6,0,8.5,0c2,0,4.1-0.3,5.7-1.6
				c2.6-2,2.6-6.4,0.1-8.5c-1.5-1.2-3.4-1.6-5.3-1.6C-158,165.8-160.9,165.9-163.9,165.9z"/>
		</g>
		<path class="st1" d="M-56.1,160.3c2.4,0,4.9,0,7.3,0c1,1.6,2,3.2,3,4.7c0.5,0.8,1,1.6,1.5,2.4c1.7,2.7,3.4,5.4,5.2,8.1
			c3.3-5,6.6-10.1,9.7-15.2c2.4-0.1,4.8,0,7.2,0c-0.2,0.4-0.7,1.1-1,1.5c-0.9,1.2-1.7,2.5-2.5,3.7c-2,3-4,6-6,9.1
			c-0.8,1.2-1.6,2.5-2.5,3.7c-0.7,1-1.4,2-1.9,3.1c-0.3,2.1,0,4.3-0.1,6.5c0,1.2,0,2.3,0,3.5c0,1.3,0,2.5,0,3.8c-2.1,0-4.2,0-6.2,0
			c0-1.5,0-3.1,0.1-4.6c0-1.3,0-2.5,0.1-3.8c-0.2-2.1,0.6-4.5-0.8-6.4C-47.3,173.6-51.6,166.9-56.1,160.3z"/>
	</g>
	<g>
		<path class="st1" d="M-589.4,130c9-6.4,21.2-7.9,31.5-4.2c9.1,3.2,16.7,10.4,20.4,19.2c1.7,4,2.6,8.3,2.7,12.7
			c-4.6,1.1-8.9,3-12.7,5.8c0.9-4.2,0.6-8.7-0.9-12.8c-1.7-4.6-4.9-8.6-9-11.2c-4.5-2.9-10-4.1-15.2-3.4c-5.5,0.7-10.6,3.5-14.1,7.7
			c-4.6,5.3-6.5,12.8-4.9,19.6c-3.8-2.8-8.1-4.8-12.7-5.8C-604.2,146.8-598.4,136.1-589.4,130z"/>
		<path class="st1" d="M-630.1,164.7c6.2-2.6,13.1-3.3,19.6-2.1c0,4.2,0,8.3,0,12.5c-4.2-1.2-8.8-1.2-13,0.2
			c-5.3,1.7-10,5.4-12.8,10.2c-2.9,5-3.9,11-2.5,16.7c1.9,8.3,8.8,15.2,17.1,17c4.9,1.1,10.1,0.5,14.7-1.7c1.5-0.7,2.6-2.3,2.5-4
			c0-8.6,0-17.3,0-25.9c3.9,5.6,7.8,11.2,11.7,16.8c0.2,0.3,0.4,0.7,0.4,1.1c0,3.9,0,7.8,0,11.6c0,1.8-0.3,3.7-1.3,5.2
			c-1.1,2-3.1,3.3-5,4.5c-6.5,4-14.4,5.7-21.9,4.8c-10.3-1.1-20-7.1-25.5-15.9c-6-9.2-7.2-21.3-3.1-31.6
			C-645.8,175.5-638.7,168.3-630.1,164.7z"/>
		<path class="st1" d="M-528.7,162.6c10.6-2,22.1,1.3,30,8.7c7.7,7,11.9,17.6,11.1,28c-0.6,9.5-5.4,18.7-12.8,24.7
			c-5,4-11.1,6.7-17.4,7.5c-8.8,1.1-18.1-1.2-25.2-6.6c-2.2-1.6-3.5-4.3-3.6-7c0-3.9,0-7.9,0-11.8c0-0.6-0.1-1.2,0.4-1.7
			c3.9-5.6,7.8-11.3,11.7-16.9c0,8.5,0,17,0,25.6c0,1.2,0.3,2.4,1.1,3.2c0.8,1,2.1,1.4,3.3,1.9c4.7,1.8,10,1.9,14.8,0.3
			c5.2-1.7,9.8-5.3,12.6-10c2.4-4.1,3.5-9,3.1-13.8c-0.4-4.3-2-8.4-4.7-11.8c-3.3-4.3-8.3-7.4-13.6-8.4c-3.5-0.7-7.1-0.5-10.5,0.5
			C-528.7,170.9-528.7,166.8-528.7,162.6z"/>
		<path class="st1" d="M-547.6,174.2c3.3-4.4,7.8-7.9,12.9-10c0,4.1,0,8.2,0,12.2c0,0.4-0.1,0.8-0.4,1.1
			c-11.5,16.5-23,33.1-34.5,49.6c-11.7-16.7-23.2-33.5-34.9-50.2c0-4.3,0-8.5,0-12.8c5.4,2.1,10,5.9,13.3,10.6
			c7.2,10.3,14.3,20.6,21.5,31C-562.2,195.3-555,184.7-547.6,174.2z"/>
	</g>
	<g>
		<path class="st1" d="M-236.6,208.4c0.8,0,1.6-0.1,2.4-0.1c0,3.1,0,6.2,0,9.3c1.9-2.9,5.9-3.9,8.9-2.1c1.9,1.1,2.8,3.3,2.8,5.5
			c0,3.4,0.1,6.8,0,10.1c-0.8,0-1.6,0-2.4,0c-0.1-3.6,0.2-7.1-0.2-10.7c-0.2-2.2-2.5-3.8-4.7-3.5c-2.4,0.1-4.3,2.2-4.4,4.6
			c-0.1,3.2,0,6.4-0.1,9.7c-0.8,0-1.6,0-2.4,0C-236.6,223.6-236.6,216-236.6,208.4z"/>
		<path class="st1" d="M-118.4,208.4c0.8,0,1.6,0,2.4,0c0,7.6,0,15.1,0,22.7c-0.8,0-1.6,0-2.4,0C-118.4,223.6-118.4,216-118.4,208.4
			z"/>
		<path class="st1" d="M-45.4,208.4c0.8,0,1.6-0.1,2.5-0.1c0,7.6,0,15.2,0,22.8c-0.8,0-1.6,0-2.5,0C-45.4,223.6-45.3,216-45.4,208.4
			z"/>
		<g>
			<path class="st1" d="M-26.8,208.4c0.8,0,1.6,0,2.4,0c0,7.6,0,15.2,0,22.7c-0.8,0-1.6,0-2.5,0c0-1,0-2,0-3c-1.5,2.1-4,3.7-6.7,3.4
				c-4.1-0.2-7.3-4.1-7.2-8.1c-0.3-3.9,2.4-8,6.3-8.6c2.9-0.7,5.8,0.8,7.5,3.2C-26.8,214.8-26.8,211.6-26.8,208.4z M-34.8,217.3
				c-4.8,2-4.4,10.1,0.5,11.7c3.8,1.4,7.9-2.2,7.5-6.1C-26.5,218.9-31,215.5-34.8,217.3z"/>
		</g>
		<path class="st1" d="M-415.3,208.8c0.9,0,1.9,0,2.8,0c0,0.9,0,1.8,0,2.7c-0.9,0-1.8,0-2.8,0C-415.3,210.6-415.3,209.7-415.3,208.8
			z"/>
		<path class="st1" d="M-286,208.8c0.9,0,1.9,0,2.8,0c0,0.9,0,1.8,0,2.7c-0.9,0-1.8,0-2.8,0C-286,210.6-286,209.7-286,208.8z"/>
		<path class="st1" d="M-174.5,208.8c0.9,0,1.9,0,2.8,0c0,0.9,0,1.8,0,2.7c-0.9,0-1.9,0-2.8,0C-174.5,210.6-174.5,209.7-174.5,208.8
			z"/>
		<path class="st1" d="M-150.3,208.8c0.9,0,1.8,0,2.8,0c0,0.9,0,1.8,0,2.7c-0.9,0-1.8,0-2.8,0C-150.3,210.6-150.3,209.7-150.3,208.8
			z"/>
		<g>
			<path class="st1" d="M-470.6,231.1c3.3-7.3,6.6-14.7,10-22c0.8,0,1.5,0,2.3,0c3.3,7.3,6.6,14.6,10,21.9c-0.9,0-1.8,0-2.7,0.1
				c-0.8-1.9-1.7-3.8-2.5-5.7c-4,0-7.9,0-11.9,0c-0.8,1.9-1.7,3.8-2.6,5.7C-469,231.1-469.8,231.1-470.6,231.1z M-459.6,212.2
				c-1.6,3.6-3.3,7.3-4.9,10.9c3.3,0,6.6,0,9.8,0C-456.3,219.5-457.8,215.8-459.6,212.2z"/>
		</g>
		<path class="st1" d="M-340.5,209.3c0.8,0,1.7,0,2.5,0c0,7.3,0,14.5,0,21.8c-0.8,0-1.7,0-2.5,0
			C-340.5,223.9-340.5,216.6-340.5,209.3z"/>
		<g>
			<path class="st1" d="M-196.2,209.3c4.4,0.2,9.1-0.8,13.3,1.3c3.6,1.7,5.9,5.5,5.9,9.4c0.2,4-2.1,8-5.7,9.8
				c-4.1,2.2-9,1.1-13.5,1.4C-196.2,223.8-196.2,216.6-196.2,209.3z M-193.7,211.7c0,5.7,0,11.4,0,17.2c3.6-0.1,7.7,0.6,10.8-1.7
				c4.4-3.1,4.4-10.6,0-13.7C-186,211-190.1,211.7-193.7,211.7z"/>
		</g>
		<path class="st1" d="M-107,209.3c0.9,0,1.9,0.1,2.8,0.1c2,6,4.1,12,6.2,18c1.9-6.1,4-12.1,5.9-18.1c0.7,0,1.4,0,2.1,0
			c2,6.1,4,12.1,5.9,18.2c2.1-5.8,4-11.7,6-17.5c0.4-1.1,2-0.4,2.8-0.6c-2.6,7.4-5.2,14.7-7.8,22.1c-0.7,0-1.4,0-2.1,0
			c-2-5.8-3.9-11.7-6-17.5c-2.1,5.8-4,11.7-6,17.6c-0.7,0-1.4,0-2.1,0C-101.8,224-104.5,216.6-107,209.3z"/>
		<path class="st1" d="M-375.3,210.2c0.8,0,1.6,0,2.4,0c0,1.6,0,3.2,0,4.9c1.7,0,3.4,0,5.1,0c0,0.7,0,1.4,0,2.2c-1.7,0-3.4,0-5.1,0
			c0,3.2-0.1,6.4,0,9.6c0,0.9,0.5,1.9,1.4,2.2c1.2,0.4,2.5,0,3.7-0.2c-0.1,0.7-0.1,1.4-0.2,2.2c-1.9,0.5-4,0.8-5.7-0.3
			c-1.2-0.8-1.6-2.4-1.6-3.8c0-3.2,0-6.4,0-9.6c-0.7,0-1.5,0-2.2,0c0-0.7,0-1.4,0-2.2c0.7,0,1.5,0,2.2,0
			C-375.3,213.4-375.3,211.8-375.3,210.2z"/>
		<path class="st1" d="M-246,210.2c0.8,0,1.6,0,2.4,0c0,1.6,0,3.2,0,4.9c1.7,0,3.4,0,5.1,0c0,0.7,0,1.4,0,2.2c-1.7,0-3.4,0-5.1,0
			c0,3.2-0.1,6.4,0,9.6c0,0.9,0.5,1.9,1.4,2.2c1.2,0.4,2.5,0,3.7-0.2c0,0.7-0.1,1.4-0.1,2.2c-1.8,0.5-4,0.9-5.7-0.3
			c-1.3-0.8-1.7-2.4-1.7-3.9c0-3.2,0-6.4,0-9.6c-0.8,0-1.5,0-2.2,0c0-0.7,0-1.4,0-2.2c0.7,0,1.5,0,2.2,0
			C-246,213.4-246,211.8-246,210.2z"/>
		<path class="st1" d="M-143.7,210.2c0.8,0,1.6,0,2.4,0c0,1.6,0,3.2,0,4.9c1.7,0,3.4,0,5.2,0c0,0.7-0.1,1.4-0.1,2.2
			c-1.7,0-3.4,0-5.1,0c0,3.1,0,6.1,0,9.2c0,0.9,0.2,2,1.1,2.5c1.3,0.6,2.7,0.2,4-0.1c0,0.7,0,1.4,0,2c-1.8,0.7-4.1,1-5.8-0.1
			c-1.3-0.8-1.7-2.4-1.7-3.8c0-3.2,0-6.5,0-9.7c-0.8,0-1.5,0-2.2,0c0-0.7,0-1.4,0-2.2c0.7,0,1.5,0,2.2,0
			C-143.7,213.4-143.7,211.8-143.7,210.2z"/>
		<path class="st1" d="M-445.1,215.5c2.9-1.5,6.3-0.5,9,0.9c-0.3,0.7-0.7,1.3-1,2c-2-1.1-4.4-2.1-6.7-1.1c-1.3,0.5-1.8,2.5-0.6,3.3
			c2.3,1.6,5.6,1.4,7.7,3.5c1.8,2,1,5.5-1.4,6.6c-3.3,1.7-7.3,0.5-10.1-1.5c0.4-0.6,0.8-1.2,1.2-1.8c2.1,1.4,4.8,2.7,7.3,1.7
			c1.4-0.5,2.1-2.6,1-3.6c-2.3-1.7-5.6-1.4-7.7-3.4C-448.4,220.1-447.5,216.6-445.1,215.5z"/>
		<g>
			<path class="st1" d="M-431.3,218.1c1.2-1.5,2.7-3,4.7-3.3c3.6-0.8,7.4,1.5,8.6,4.9c1.1,3.2,0.6,7-1.8,9.5c-2.2,2.3-5.9,3-8.7,1.5
				c-1.2-0.6-2-1.6-2.8-2.5c0,2.6,0,5.3,0,7.9c-0.8,0-1.6,0-2.4,0c0-7,0-14.1,0-21.1c0.8,0,1.6,0,2.4,0
				C-431.3,216-431.3,217.1-431.3,218.1z M-427.8,217.3c-3.6,1.5-4.7,6.4-2.5,9.4c1.6,2.4,5,3.3,7.5,1.8c3.1-1.8,3.7-6.4,1.8-9.3
				C-422.4,217.1-425.4,216.2-427.8,217.3z"/>
		</g>
		<path class="st1" d="M-407.1,219c1.2-2.5,3.7-4.4,6.6-4.3c0,0.9,0,1.7,0,2.6c-2.8,0-5.6,1.9-6.2,4.7c-0.7,3-0.2,6.1-0.3,9.1
			c-0.8,0-1.7,0-2.5,0c0-5.4,0-10.7,0-16.1c0.8,0,1.7,0,2.5,0C-407.1,216.4-407.1,217.7-407.1,219z"/>
		<g>
			<path class="st1" d="M-397.5,216.6c2.8-2.7,7.8-2.5,10.4,0.4c1.7,1.9,2.2,4.5,2.2,7c-4.3,0.1-8.6,0-12.9,0.1
				c0.4,2.1,1.5,4.2,3.6,5c2.5,1.1,5.4-0.1,7.3-1.9c0.5,0.5,1,0.9,1.5,1.4c-2.7,3.2-7.9,4-11.3,1.6
				C-401.2,227.1-401.4,220-397.5,216.6z M-395.7,217.9c-1.3,1-1.8,2.7-2.2,4.3c3.5,0,7,0,10.5,0c-0.3-1.3-0.6-2.8-1.6-3.8
				C-390.6,216.4-393.8,216.2-395.7,217.9z"/>
		</g>
		<g>
			<path class="st1" d="M-360.9,215c3.4-1,7.4,0.3,9.3,3.2c2.5,3.5,1.7,8.9-1.7,11.5c-3.8,3.1-10.3,2-12.5-2.5
				C-368.5,222.8-366,216.3-360.9,215z M-360.9,217.3c-2.3,1-3.7,3.6-3.5,6.1c0,3.6,3.6,6.7,7.2,5.8c3.7-0.7,5.5-5.2,4.1-8.5
				C-354.1,217.6-358,215.9-360.9,217.3z"/>
		</g>
		<path class="st1" d="M-332,217.6c1.8-2.9,5.9-3.9,8.9-2.1c1.9,1.1,2.8,3.3,2.8,5.5c0,3.4,0,6.8,0,10.1c-0.8,0-1.6,0-2.4,0
			c-0.1-3.4,0.1-6.8-0.1-10.1c-0.1-1.9-1.4-3.8-3.4-4c-2.6-0.6-5.5,1.3-5.7,4c-0.2,3.4,0,6.7-0.1,10.1c-0.8,0-1.6,0-2.4,0
			c-0.1-5.4,0.1-10.7-0.1-16.1c0.8,0,1.7,0,2.5,0C-331.9,215.9-332,216.8-332,217.6z"/>
		<path class="st1" d="M-315.7,215.4c2.9-1.4,6.2-0.5,8.9,1c-0.3,0.6-0.7,1.3-1,2c-2-1.1-4.4-2.2-6.7-1.1c-1.3,0.5-1.8,2.5-0.6,3.3
			c2.4,1.6,5.6,1.4,7.7,3.6c1.9,2.1,0.8,5.7-1.7,6.7c-3.3,1.5-7,0.3-9.8-1.6c0.4-0.6,0.8-1.2,1.2-1.8c1.7,1.1,3.6,2.1,5.6,2
			c1.2,0,2.7-0.5,3.2-1.8c0.4-1-0.1-2.1-1-2.5c-2.3-1.3-5.2-1.2-7.1-3C-319.1,220.2-318.1,216.5-315.7,215.4z"/>
		<g>
			<path class="st1" d="M-298.9,215.4c2.7-1.4,6.2-0.6,8.4,1.5c4,3.9,3,11.9-2.4,14.1c-3.2,1.4-7,0.1-9-2.7c0,2.6,0,5.3,0,7.9
				c-0.8,0-1.7,0-2.5,0c0-7,0-14.1,0-21.1c0.8,0,1.7,0,2.5,0c0,1,0,2,0,3C-301,217-300.1,215.9-298.9,215.4z M-298.4,217.3
				c-3.3,1.4-4.6,5.8-2.9,8.8c1.3,2.7,4.9,4,7.6,2.6c3.3-1.6,4-6.4,2.1-9.3C-293,217.2-296.1,216.2-298.4,217.3z"/>
		</g>
		<path class="st1" d="M-277.7,218.9c1.2-2.5,3.7-4.3,6.5-4.3c0,0.9,0,1.7,0,2.6c-2.4,0.1-4.8,1.2-5.8,3.5
			c-1.4,3.3-0.6,6.9-0.8,10.3c-0.8,0-1.6,0-2.5,0c0-5.4,0-10.7,0-16.1c0.8,0,1.6,0,2.4,0C-277.8,216.3-277.7,217.6-277.7,218.9z"/>
		<g>
			<path class="st1" d="M-267.8,216.3c2.9-2.4,7.6-2.2,10.1,0.7c1.7,1.9,2.1,4.5,2.1,7c-4.3,0-8.6,0-12.9,0c0.4,1.9,1.2,3.8,3,4.7
				c2.6,1.4,5.8,0.5,7.8-1.5c0.4,0.5,1.4,0.8,1.3,1.5c-2.8,3.5-8.6,3.8-11.9,0.7C-272,226-271.7,219.4-267.8,216.3z M-266.3,217.9
				c-1.3,1-1.9,2.7-2.1,4.3c3.5,0,7,0,10.4,0c-0.3-1.4-0.7-3-1.8-4C-261.5,216.4-264.5,216.3-266.3,217.9z"/>
		</g>
		<g>
			<path class="st1" d="M-217.6,216.2c2.9-2.3,7.7-2,10.1,0.9c1.6,1.9,2,4.5,2.1,6.9c-4.3,0-8.6,0-12.9,0c0.4,2,1.4,4.1,3.4,4.9
				c2.6,1.1,5.5,0.1,7.4-1.8c0.5,0.5,1,0.9,1.5,1.4c-2.8,3.2-8,4-11.5,1.5C-221.8,226.9-221.8,219.5-217.6,216.2z M-216.3,218
				c-1.2,1-1.7,2.7-2.1,4.2c3.5,0,7,0,10.5,0c-0.3-1.4-0.6-2.8-1.6-3.9C-211.2,216.3-214.4,216.2-216.3,218z"/>
		</g>
		<g>
			<path class="st1" d="M-169.6,221c0.5-4,4.7-6.9,8.7-6.2c2.1,0.2,3.8,1.5,5.1,3c0-0.9,0-1.8,0-2.8c0.8,0,1.6,0,2.4,0
				c0,4.6,0,9.2,0,13.7c0,2.3-1,4.7-2.9,6c-3.8,2.4-8.9,1.5-12.6-0.7c0.4-0.7,0.7-1.3,1.1-2c2.8,1.9,6.8,2.9,9.9,1
				c2.2-1.4,2.3-4.2,2.2-6.5c-2,2.5-5.4,4-8.5,3C-168,228.7-170.3,224.7-169.6,221z M-162.7,216.9c-1.5,0.2-3,1.1-3.7,2.4
				c-1.6,2.5-0.7,6.2,1.9,7.6c3.3,2,8.3-0.1,8.7-4C-155.2,219.2-159.1,216.2-162.7,216.9z"/>
		</g>
		<g>
			<path class="st1" d="M-134.1,216.1c2.9-1.2,6.4-1.9,9.4-0.7c2,0.8,3.3,2.9,3.3,5.1c0.1,3.5,0,7.1,0,10.6c-0.8,0-1.6,0-2.4,0
				c0-0.8,0-1.5,0-2.3c-2.4,2.9-7.1,3.6-10.1,1.3c-2.5-1.8-2.3-6.2,0.4-7.8c2.9-1.8,6.6-1.2,9.8-0.5c-0.1-1.6-0.4-3.4-1.9-4.2
				c-2.5-1.3-5.4-0.5-7.8,0.5C-133.6,217.4-133.9,216.8-134.1,216.1z M-131.5,223.7c-1.9,0.9-2,3.9-0.3,5c2.3,1.5,5.8,0.9,7.4-1.2
				c0.9-1.1,0.7-2.5,0.8-3.8C-126.2,223.1-129.1,222.5-131.5,223.7z"/>
		</g>
		<g>
			<path class="st1" d="M-67.8,214.8c4.7-1.1,9.8,2.7,10,7.6c0.6,4.8-3.7,9.4-8.6,9.1c-4.5,0.1-8.5-4.1-8.2-8.6
				C-74.6,219.1-71.6,215.4-67.8,214.8z M-68.7,217.3c-3,1.3-4.1,5.1-3.1,8c1,3,4.6,4.8,7.6,3.6c3.6-1.3,4.9-6.1,2.9-9.3
				C-62.6,217.2-66,216.1-68.7,217.3z"/>
		</g>
		<path class="st1" d="M-53.4,218.9c1.3-2.4,3.7-4.3,6.6-4.3c0,0.9,0,1.7,0,2.6c-2.1,0.1-4.3,0.9-5.4,2.9c-1.9,3.3-0.9,7.3-1.2,10.9
			c-0.8,0-1.6,0-2.4,0c0-5.4,0-10.7,0-16.1c0.8,0,1.6,0,2.4,0C-53.4,216.3-53.4,217.6-53.4,218.9z"/>
		<path class="st1" d="M-415.2,231.1c0-5.4,0-10.7,0-16.1c0.8,0,1.6,0,2.4,0c0,5.4,0,10.7,0,16.1
			C-413.6,231.1-414.4,231.1-415.2,231.1z"/>
		<path class="st1" d="M-285.8,231.1c0-5.4-0.1-10.8,0-16.1c0.8,0,1.6,0,2.4,0c0,5.4,0,10.7,0,16.1
			C-284.2,231.1-285,231.1-285.8,231.1z"/>
		<path class="st1" d="M-174.4,215c0.8,0,1.6,0,2.4,0c0,5.4,0,10.7,0,16.1c-0.8,0-1.6,0-2.4,0C-174.4,225.8-174.4,220.4-174.4,215z"
			/>
		<path class="st1" d="M-150.2,215c0.8,0,1.6,0,2.5,0c0,5.4,0,10.7,0,16.1c-0.8,0-1.6,0-2.5,0C-150.2,225.8-150.2,220.4-150.2,215z"
			/>
	</g>
</g>
</svg>
